<svg xmlns="http://www.w3.org/2000/svg" xmlns:xlink="http://www.w3.org/1999/xlink" width="859.368" height="416.448" xmlns:v="https://vecta.io/nano"><style><![CDATA[.AI{fill:#232c44}.AJ{fill:#485a7e}.AK{fill:#fff}.AL{fill:#b06d51}.AM{fill:#e6bca8}.AN{fill:#fea689}.AO{fill:#e6d6cf}.AP{fill:#4ea5b7}.AQ{fill:#f2e2da}.AR{fill:#e9eaf2}.AS{fill:#de684e}.AT{fill:#8f5238}.AU{fill:#f8f8f8}.AV{fill:#f2835e}.AW{fill:#fad3b1}.AX{fill:#6b3939}.AY{fill:#252730}.AZ{fill:#d49d83}.Aa{fill:#bf4c33}.Ab{fill:#f7e6df}.Ac{fill:#d1b8ae}.Ad{fill:#020202}.Ae{fill:#7acf0f}]]></style><path d="M859.357 207.621a210 210 0 0 1-1.6 27.332c-4.92 35.561-2.276 80.333-2.276 80.333l-142.672 5.925-541.748 20.425c-3.959-1.182-58.608-14.589-105.08-25.943L.052 299.611s3.2-93.623 27.827-175.789 79.846-96.947 134.473-89.559c35.6 4.816 86.31-10.032 135.359-21.636C323.935 6.427 349.686 1.14 372.4.283c65.2-2.46 178.514 11.819 223.8 14.774l116.6 7.483q11.79.953 23.579 2.1c22.552 2.2 45.555 7.01 65.471 18.231 21.3 12 34.231 32.673 41.914 55.528 11.709 34.794 15.851 72.62 15.593 109.222z" class="AU"/><path d="M859.356 207.621a210 210 0 0 1-1.6 27.332c-4.92 35.561-2.276 80.333-2.276 80.333l-5.68.236-2.956.126-68.034 2.829-2.954.126-63.048 2.608V22.54q11.79.953 23.579 2.1c13.363 1.165 26.582 3.627 39.469 7.35.99.288 1.972.6 2.954.916a125.02 125.02 0 0 1 23.048 9.966c13.88 7.823 24.207 19.325 31.838 32.717q.953 1.662 1.847 3.369c3.257 6.251 6.009 12.752 8.229 19.442q1.639 4.865 3.073 9.8 1.6 5.453 2.956 10.978a324.24 324.24 0 0 1 8.17 50.844q.132 1.528.244 3.058c.876 11.546 1.223 23.099 1.141 34.541z" class="AK"/><g class="AU"><path d="M778.808 32.904v285.574l-2.955.126V31.988l2.955.916zm70.99 86.268v196.35l-2.955.126V108.199q1.596 5.453 2.955 10.973z"/><path d="M835.541 78.954l-56.733-11.155-2.954-.576-63.048-12.4v-3.014l63.048 12.4 2.954.584 54.885 10.792q.955 1.664 1.848 3.369zm22.667 94.125l-8.414-1.654-2.956-.584-68.03-13.378-2.954-.576-63.048-12.4v-3.015l63.048 12.4 2.954.583 68.034 13.378 2.956.576 8.17 1.61q.132 1.531.24 3.06z"/></g><path d="M297.708 12.628v206.791l-74.224 30.841-2.955 1.226-73.087 30.358-2.955 1.226-78.509 32.621L.049 299.609a853.87 853.87 0 0 1 9.574-93.128c.17-1.049-.177-122.728 0-123.784.175-4.371 189.351-48.237 210.906-52.248l2.955-.562c23.683-4.561 49.168-11.335 74.224-17.259z" class="AK"/><g class="AU"><path d="M297.708 49.363v3.044l-74.224 17.514-2.955.7-73.086 17.251-2.955.7-82.794 19.531-2.955.7-28.167 6.641 1.175-3.317 26.992-6.367 2.955-.694 82.794-19.539 2.955-.7 73.087-17.241 2.955-.7zm0 86.103v3.036l-74.225 17.515-2.955.7-73.087 17.249-2.955.694-82.793 19.539-2.955.694-49.116 11.59.51-3.162 48.607-11.465 2.955-.7 82.793-19.539 2.955-.694 73.087-17.249 2.955-.694z"/><path d="M223.485 29.891v259.727h-2.955V30.453l2.955-.562zm-76.042 2.947v264h-2.955V32.698l2.955.14zm-85.748 29.46v249.939H58.74V65.422l2.955-3.124z"/></g><path d="M855.478 315.287l-504.3-115.85L.049 299.612c-.655.186 5.524 19.419 5.922 20.545 2.655 7.51 4.929 16.151 10.846 21.866 7.889 7.497 17.657 12.724 28.271 15.128 7.954 1.622 15.829 3.622 23.62 5.9 15.4 4.509 30.447 10.116 45.348 16.042 24.8 9.863 49.857 19.933 76.438 23.775 31.186 4.509 62.7-.468 93.571-5.017 29.858-4.4 59.913-8.518 90.009-10.871 15.474-1.276 31.004-1.725 46.526-1.344 14.488.417 28.774 2.8 42.907 5.906 29.109 6.4 59.518 12.438 89.6 15.832 30.934 3.491 61.98 2.858 93.031 4.263 29.529 1.336 59.247 7.606 88.808 3.352 13.609-1.959 27.206-6.256 40.2-10.651 10-3.384 16.076-12.132 23.978-18.78 9.525-8.013 19.768-15.117 29.739-22.554l.753-.562c5.974-4.322 11.655-9.036 17.005-14.11 17.879-17.687 8.857-33.045 8.857-33.045z" fill="#f0f0f0"/><g class="AM"><path d="M584.36 218.972v47.188l-9.323-2.231-.716-.17-12.152-2.918-.952-.229-22.656-5.422-.894-.214-15.372-3.686-1.056-.251-1.248-.3-1.012-.244-16.1-3.856-.79-.192-2.423-.576-.931-.222-23.55-5.644-.968-.229-3.624-.864-.894-.214-3.583-.857-1.211-.3-55.683-13.329-2.681-45.171 30.885 6.936 67.259 15.106.768.17 4.071.916 1.027.229 9.817 2.209 1.256.281 5.614 1.256.724.162 4.284.968 1.137.251 3.886.872 1.012.229 14 3.147.783.17 15.327 3.442.748.17 8.065 1.81.716.163 3.747.842.826.185z"/><path d="M615.239 205.228v47.18l-30.877-6.331-2.291-.473-.658-.133-3.952-.813-.8-.163-8.34-1.714-.96-.2h-.008l-3.841-.783-.776-.163-1.973-.407-.775-.155-3.79-.776-.85-.177-2.341-.48-.776-.162-9.219-1.891-.827-.17-.244-.044-.746-.155-6.043-1.241-.722-.148-.835-.17-.791-.163-6.716-1.381-1.093-.222-7.033-1.44-.752-.156-2.719-.562h-.008l-.48-.1-1.633-.339-.871-.178h-.008l-9.337-1.913-.872-.185-1.566-.318-1.123-.229-10.142-2.083-2.49-.51-13.083-2.682-.894-.184-2.283-.466-.008-.008-1.137-.229-31.136-6.39v-50.624l57.271 12.861 1.012.229 28.677 6.442 1.337.3 10.238 2.3.982.222 18.948 4.254.857.193 2.467.554.828.184 25.085 5.629.872.2 3.953.886.834.192z"/><path d="M615.242 252.411l-30.881 13.742v-47.181l30.881-13.742z"/></g><path d="M577.822 235.394c-2.335-3.443-5.106-6.634-6.936-10.4a16.79 16.79 0 0 1-.259-14.74c.2-.428-.435-.8-.638-.373a17.25 17.25 0 0 0-1.414 10.72c.78 3.938 3.011 7.383 5.319 10.591 4.471 6.211 11.627 15.677 4.959 23-.319.351.2.875.522.522 5.233-5.742 2.233-13.734-1.553-19.32zm-4.606-.622c-.258-.4-.9-.027-.638.373 2.759 4.22 4.438 9.053 4.889 14.075.043.47.782.475.739 0-.454-5.152-2.168-10.114-4.99-14.448zm-1.921-3.723a22.11 22.11 0 0 0-2.7-4.1c-.3-.367-.823.158-.523.522a21.32 21.32 0 0 1 2.584 3.953c.217.421.852.048.639-.375zm-10.824 20.728a18.6 18.6 0 0 1-7.3-11.391 36.25 36.25 0 0 1-.848-7.921c-.026-2.352-.39-5.594 1.273-7.482.312-.356-.208-.88-.523-.522-1.606 1.826-1.466 4.361-1.488 6.653a40.97 40.97 0 0 0 .728 8.813c1.039 4.96 3.526 9.6 7.783 12.488.396.268.766-.372.375-.638zm-5.003-25.978a.37.37 0 0 0-.522 0 .37.37 0 0 0 0 .522 28.19 28.19 0 0 1 7.923 23.528c-.062.469.677.465.739 0 1.145-8.843-1.86-17.72-8.14-24.05zm2.912 7.448c-.146-.45-.859-.258-.712.2 1.414 4.362 3.5 9.686 2.766 14.392a30.39 30.39 0 0 1-6.181-16.095c-.038-.471-.777-.475-.739 0a31.27 31.27 0 0 0 6.871 17.228c.147.143.383.141.527-.005a.38.38 0 0 0 .091-.158c1.156-5.056-1.086-10.821-2.623-15.562zm-.434 6.503q-.724-2.231-1.252-4.516c-.107-.463-.82-.267-.712.2q.528 2.286 1.252 4.516c.146.445.859.254.712-.2zm4.225 21.088l-.954-.229c-2.556-4.27-5.916-8.2-8.192-12.565-.214-.421.421-.79.643-.369 2.386 4.597 5.91 8.679 8.503 13.163zm-5.258-38.918c-2.803-4.614-4.323-9.893-4.4-15.291a.37.37 0 0 0-.369-.369.37.37 0 0 0-.369.369c.079 5.528 1.633 10.935 4.5 15.663a.37.37 0 0 0 .638-.372zm18.125 42.005l-.717-.17a29.9 29.9 0 0 0-1.528-18.578c-.178-.436.458-.812.642-.37a30.81 30.81 0 0 1 1.603 19.118zm-5.385-18.574a44.48 44.48 0 0 0-3.822-6.521c-.272-.385-.913-.017-.638.373a44.47 44.47 0 0 1 3.821 6.521c.205.429.844.055.639-.373zm-35.962-5.228a13.13 13.13 0 0 0-4.483-3.291c-2.757-1.283-4.469-4.101-4.338-7.139-.038-2.525.422-5.054.558-7.573.155-2.639.151-5.284-.012-7.922-.059-2.058-.539-4.081-1.411-5.946a23.11 23.11 0 0 0-4.11-5.232c-.329-.345-.851.178-.522.522a21.2 21.2 0 0 1 4.136 5.359c1.135 2.406 1.212 5.146 1.269 7.758a72.1 72.1 0 0 1-.208 7.276 37.05 37.05 0 0 0-.361 7.044 8.23 8.23 0 0 0 1.648 4.3c1.129 1.391 2.8 2.042 4.323 2.886 3.875 2.134 5.828 6.608 4.759 10.9a.37.37 0 1 0 .713.2h0a10.58 10.58 0 0 0-1.961-9.142zm4.871 15.063l-.894-.214c-1.507-3.841-.961-8.362-.983-12.4a.37.37 0 0 1 .739 0c.03 4.082-.569 8.788 1.138 12.614zm-11.083-34.683c-.272-.386-.913-.017-.638.373 3.609 5.123 8.558 10.528 7.436 17.3-.077.465.635.665.712.2 1.162-7.029-3.752-12.535-7.51-17.873zm3.484 7.869c-.224-.419-.862-.047-.638.373 1.256 2.357 2.147 4.891 2.642 7.516.089.466.8.269.712-.2a27.09 27.09 0 0 0-2.716-7.689zm-.762-10.76a19.92 19.92 0 0 1-1.988-13.1c.087-.464-.624-.664-.712-.2a20.74 20.74 0 0 0 2.062 13.668c.223.426.861.053.638-.368zm13.568 4.372l-2.844-7.689c-.811-2.199-1.828-4.316-3.037-6.324-1.465-2.363-3.164-4.689-2.946-7.611.035-.474-.7-.472-.739 0-.284 3.807 2.466 6.691 4.128 9.858a77.3 77.3 0 0 1 5.09 12.953 5.02 5.02 0 0 1 .381 2.265c-.51 2.35-2.975.116-3.49-.449a8.81 8.81 0 0 1-1.7-3.084c-.534-1.949-.96-3.926-1.278-5.922a22.43 22.43 0 0 0-5.37-10.175c-.321-.353-.842.171-.523.522 1.919 2.079 3.413 4.513 4.4 7.165.887 2.427 1.089 4.983 1.729 7.47.494 1.922 3.4 8.289 6.327 5.733 1.391-1.218.37-3.36-.128-4.712zm-16.493 2.214c.077-.465-.635-.665-.713-.2a23.6 23.6 0 0 0-.084 7.231c.066.469.777.269.712-.2-.321-2.268-.292-4.572.085-6.831zm-15.8 5.434c-1.6-2.4-4.012-4.248-5.292-6.867-1.7-3.479.026-7.3-.457-10.951s-2.349-6.94-2.826-10.6c-.06-.464-.8-.471-.738 0 .421 3.225 1.848 6.144 2.573 9.292.856 3.716-.793 7.5.23 11.144.691 2.462 2.548 4.327 4.179 6.2 1.164 1.22 2.102 2.637 2.771 4.185a17.21 17.21 0 0 1 .784 6.106.37.37 0 0 0 .739 0c-.006-2.993-.253-5.951-1.963-8.509zm3.184 1.702a20.35 20.35 0 0 1-1.128-10.028 10.4 10.4 0 0 0-.822-6.548c-1.262-2.463-3.74-3.925-5.1-6.34a22.5 22.5 0 0 1-2.365-8.8c-.049-.468-.788-.473-.739 0a26.63 26.63 0 0 0 1.673 7.525c1.071 2.579 2.771 4.07 4.585 6.1 2.62 2.937 2.232 6 1.783 9.6-.377 3.023.46 5.832 1.4 8.677.151.46.861.267.713-.186zm-3.912-11.968a16.85 16.85 0 0 0-2.525-6.151c-.259-.4-.9-.027-.638.372 1.604 2.428 2.536 5.238 2.7 8.143q.033.5.041 1.008-.145 1.013-.555.132a4.53 4.53 0 0 1-1.066-1.636c-.701-1.397-1.071-2.937-1.08-4.5a.37.37 0 1 0-.739 0 10.95 10.95 0 0 0 1.6 5.623c.406.648 1.344 2.352 2.335 1.7.876-.574.087-3.801-.073-4.691zm4.66-9.166c-1.348-1.326-1.743-3.126-2.592-4.754-.776-1.49-2.159-2.532-2.866-4.055-.2-.431-.837-.056-.638.373.781 1.68 2.3 2.825 3.089 4.514.74 1.579 1.211 3.19 2.486 4.444.336.334.862-.189.521-.522zm6.888 41.086l-1.057-.251-.273-.48c-1.194-2.343-2.007-4.862-2.408-7.461-.635-3.561-.8-7.217-1.344-10.793a27.91 27.91 0 0 0-2-7.335c-.192-.429.443-.806.635-.37a29.2 29.2 0 0 1 2.12 7.86c.45 3.058.65 6.175 1.108 9.248a25.58 25.58 0 0 0 2.534 8.473c.206.383.434.754.685 1.109zm-2.306-.547l-1.012-.243q-1.418-2.327-2.725-4.735c-.229-.414.406-.79.635-.369q1.485 2.713 3.102 5.347zm-17.108-4.099l-.79-.192-.222-.938c-.776-3.044-2.615-5.038-4.919-7.04a21.81 21.81 0 0 1-4.927-5.481c-1.44-2.527-2.534-5.518-5.282-6.833a22.51 22.51 0 0 0 7.7 14.353c1.788 1.507 3.952 2.556 4.979 4.772a8.06 8.06 0 0 1 .244.591l-.931-.222c-.351-.786-.859-1.493-1.492-2.076-1.906-1.743-4.056-2.984-5.769-4.971-3.082-3.582-5.003-8.015-5.511-12.713a4.61 4.61 0 0 1-.037-.318c-.001-.097.037-.19.105-.259s.16-.108.257-.109a.37.37 0 0 1 .1.014c.749.276 1.446.675 2.062 1.182 1.391 1.266 2.513 2.798 3.3 4.506a24.87 24.87 0 0 0 6.124 7.394 13.64 13.64 0 0 1 4.617 6.722c.156.532.282 1.072.392 1.618zm-.185-15.852l-.539-1.574a66.82 66.82 0 0 0-3.915-7.837 110.97 110.97 0 0 1-5.127-10.83c-.185-.436-.894-.244-.716.2l.214.5c-.2-.111-.465-.074-.5.207a18.13 18.13 0 0 0 2.6 11.583 39.2 39.2 0 0 0 3.552 5.03l.333.414c1 1.226 2.031 2.415 3.641 2.755a.37.37 0 0 0 .283-.041.38.38 0 0 0 .172-.229.37.37 0 0 0 .002-.178zm-2.977-2.076l-1.337-1.662c-1.117-1.385-2.131-2.849-3.035-4.381a17.4 17.4 0 0 1-2.534-10.947l4.137 8.813a88.92 88.92 0 0 1 4.336 8.5l.466 1.278c-.788-.376-1.483-.923-2.033-1.601zm7.011 9.719a17.59 17.59 0 0 0-2.529-5.669c-.265-.391-.905-.022-.638.373a16.99 16.99 0 0 1 2.455 5.493.37.37 0 0 0 .712-.2zm-31.543 1.575l-.968-.229c-.708-1.458-1.191-3.015-1.433-4.617a55.85 55.85 0 0 0-.783-5.555c-.494-1.781-1.224-3.488-2.172-5.075l-1.27-2.209-4.587-7.2c-.266-.391.376-.76.635-.369l5.1 7.8a24.89 24.89 0 0 1 3.421 9.219 25.67 25.67 0 0 0 2.057 8.235zm1.059-10.12c-2.195-3.926-4.085-8.015-5.654-12.231-.165-.442-.879-.25-.712.2a88.99 88.99 0 0 0 5.729 12.408c.231.409.869.039.637-.377zm-5.654 9.019l-.894-.215-1.558-3.442a51.88 51.88 0 0 0-4.343-7.395c-1.544-2.171-3.31-4.491-5.961-5.215 1.115 5.85 4.461 10.733 8.281 15.2l-1.211-.3c-3.745-4.484-6.944-9.411-7.9-15.284a.38.38 0 0 1 .279-.458.36.36 0 0 1 .179 0c2.5.443 4.269 2.18 5.8 4.108 1.895 2.445 3.55 5.067 4.942 7.83.872 1.692 1.654 3.421 2.386 5.171zm-6.877-16.18c-.273-.384-.914-.016-.638.373 2.3 3.237 5.876 5.945 6.216 10.171.038.471.777.475.739 0-.356-4.428-3.911-7.151-6.317-10.544zm85.017 30.954q-2.948-8.01-5.718-16.088l-1.012-2.948c.008-.059.008-.118.015-.177.021-.136-.056-.269-.185-.318l-.192-.546c-.148-.451-.865-.259-.71.192l.325.953c-.064.823-.083 1.65-.059 2.475.141 6.271 2.608 12.266 6.922 16.82.242.25.747-.008.614-.363zm-6.788-16.3l-.015-.7.259.746q2.526 7.336 5.171 14.619a24.56 24.56 0 0 1-5.415-14.668zm42.456-12.066c-1.453-3.844-1.692-8.079-3.988-11.586-.26-.4-.9-.027-.638.373 1.76 2.688 2.276 5.786 3.1 8.831.387 1.378.86 2.731 1.414 4.051a21.78 21.78 0 0 1 .882 2.372 8.66 8.66 0 0 1 .337 1.747q-.508.649-.949.028c-1.246-.492-2.577-2.353-3.33-3.388-.838-1.155-1.533-2.407-2.068-3.73-1.139-2.823-1.503-5.899-1.052-8.909.07-.465-.642-.666-.712-.2a17.92 17.92 0 0 0 4.276 14.559c.729.827 2.243 2.693 3.434 2.857 2.801.392-.39-6.168-.706-7.005zm21.307 11.397c-1.511-2.841-4.4-4.571-7.273-5.8a14.01 14.01 0 0 1-1.893-.751c-1.688-1.06-1.626-2.211-1.83-3.937a31.6 31.6 0 0 0-1.007-5.1c-.934-3.322-2.56-6.409-4.771-9.059-.307-.364-.827.161-.522.522a24.16 24.16 0 0 1 4.957 10.185c.429 1.837.511 3.683.8 5.535a2.73 2.73 0 0 0 1.632 2.353c3.243 1.591 6.742 2.5 8.854 5.723 2.089 3.185 2.177 7.9 2.8 11.563.08.467.792.269.712-.2-.601-3.556-.736-7.796-2.459-11.034zm2.774-1.496c-1.811-2.467-5-3.29-7.032-5.529-.32-.353-.841.171-.522.522 1.946 2.144 4.954 2.961 6.769 5.215 2.043 2.536 2.745 6.433 3.223 9.577.071.468.783.269.712-.2-.482-3.161-1.21-6.942-3.15-9.585zm-2.002-15.242c-1.371-1.844-2.934-3.537-4.662-5.051a22 22 0 0 1-4.715-6.956c-.188-.435-.824-.059-.638.373a22.42 22.42 0 0 0 3.365 5.523c1.542 1.843 3.5 3.281 5.024 5.136 2.668 3.485 4.083 7.768 4.017 12.156-1.431-2.669-4.469-4.07-6.9-5.892-3.944-2.962-5.438-7.781-6.043-12.483-.06-.465-.8-.471-.739 0 .486 3.777 1.454 7.644 3.866 10.684 2.862 3.608 8.87 4.887 9.79 9.854.079.428.7.3.726-.1.399-4.631-.684-9.268-3.091-13.244zm-1.604 4.8a31.41 31.41 0 0 1-6.927-11.139c-.161-.443-.875-.252-.713.2 1.539 4.28 3.964 8.186 7.117 11.464.33.341.855-.182.523-.525zm.755-1.576a13.11 13.11 0 0 0-1.546-2.851c-.275-.382-.916-.014-.638.373.6.827 1.094 1.726 1.472 2.675.172.435.889.245.712-.197zm9.608.056v1a30.25 30.25 0 0 1-2.276-2.283c-1.521-1.906-1.884-4.4-3.125-6.464a28.18 28.18 0 0 0-5.289-5.88c-.354-.317.17-.842.517-.516 2.549 2.342 5.053 4.742 6.39 8 .916 2.223 1.6 4.04 3.368 5.732a8.47 8.47 0 0 1 .415.411zm-55.189-20.661q-1.961-5.03-3.915-10.069l-.244-.621.857.193.354.908q1.828 4.7 3.657 9.389c.171.444-.538.636-.709.2zm1.034-4.292l-1.869-5.651.828.184 1.75 5.267c.141.458-.569.65-.709.2zm29.467 7.446c-1.647.465-3.391-3.184-4-4.247a21.92 21.92 0 0 1-1.426-3.036l.872.2.126.31c.68 1.581 1.684 4.019 3.073 5.112.177.495.488.613.93.347.458.081.643-.067.54-.436.069-.52.041-1.048-.082-1.558a15.35 15.35 0 0 0-.635-2.889l.835.192a16.67 16.67 0 0 1 .443 1.913c.181 1.071.772 3.679-.676 4.092zm-53.603-18.098a5.07 5.07 0 0 1-2.7 1.367c-2.261.358-4.578.045-6.663-.9a10.55 10.55 0 0 1-3.191-3.287l1.337.3c.037.059.088.125.133.184a5.98 5.98 0 0 0 3.42 2.608 15.43 15.43 0 0 0 3.487.466 5.04 5.04 0 0 0 3.2-.953zm-37.756-2.142q-2.205-3.7-4.491-7.35l1.012.229q2.094 3.357 4.115 6.752a.37.37 0 0 1-.141.489.37.37 0 0 1-.495-.12z" fill="#f2d2c2"/><path d="M650.661 78.841c-.383-3.652-1.787-8.106-4.948-10.3-3.6-2.5-8.461-1.072-12.118.52a33.94 33.94 0 0 0-10.1 7.018c-6.53 6.406-11.025 14.542-15.515 22.417l-9.891 17.356a80.36 80.36 0 0 0-7.186 16.079c-1.658 5.463-1.914 11.2-3.3 16.714-1.061 4.21-11.716 31.3-.735 30.216a8.55 8.55 0 0 0 4.736-2.7 66.35 66.35 0 0 0 5.76-6.616c3.275-4.136 6.26-8.491 9.237-12.842a82.17 82.17 0 0 0 8.273-14.2c2.111-4.984 3.651-10.215 6.136-15.037 2.532-4.618 5.686-8.867 9.374-12.627 6.624-7.114 14.037-13.692 17.935-22.815 1.885-4.125 2.691-8.661 2.342-13.183zm-63.08 13.557a28.47 28.47 0 0 0-2.43-8.793c-1.1-2.331-2.813-5.349-5.145-6.655-2.589-1.449-4.589.837-5.929 2.87a28.6 28.6 0 0 0-3.457 9.234l-5.9 25.158c-2.01 8.578-4.41 16.968-3.111 25.845 1.2 8.209 2.438 16.482 2.419 24.8-.007 2.73.089 5.392 3.252 6.107 5.956 1.346 9.243-6.036 10.555-10.511 2.172-7.407 2.163-15.207 2.673-22.846.556-8.328 2.606-16.134 4.7-24.172 1.791-6.869 3.224-13.916 2.373-21.037zm-137.328 43.244c-5.671-17.882-13.8-34.927-22.941-51.32-2.517-4.515-5.163-9.051-8.9-12.627-4.032-3.862-16.718-10.4-19.757-1.912-.891 2.49-.378 5.253.357 7.794 3.48 12.033 11.262 24.078 19.206 33.715 7.343 8.909 16.849 16.278 21.933 26.643.991 2.023 1.487 5.261 2.847 6.986 1 1.267 3.446 1.555 4.99 1.393a4.42 4.42 0 0 0 3.677-2.471c.574-1.392.168-2.976-.258-4.421q-.556-1.897-1.154-3.78zm20.107-90.437c-1.792-3.943-6.321-12.372-11.832-8.491-2.106 1.484-3.2 4.16-3.867 6.553-1.011 3.815-1.754 7.696-2.226 11.614-.678 4.65-.812 9.362-.4 14.043.438 4.385 1.537 8.659 2.359 12.979a130.24 130.24 0 0 1 1.793 13.9 150.89 150.89 0 0 0-.666 23.554c.167 3.19.505 6.665 2.573 9.254a6.82 6.82 0 0 0 6.739 2.754c7.333-1.758 5.577-11.42 5.221-16.752-.589-8.81.75-17.59 2.074-26.275 2.162-14.179 4.397-29.584-1.768-43.133zm194.297 97.623c-1.52-2.601-4.017-4.486-6.935-5.236-6.551-1.908-13.158.912-18.307 4.887a91.25 91.25 0 0 0-16.96 17.989q-1.937 2.61-3.712 5.333a80.28 80.28 0 0 0-3.6 3.641 60.73 60.73 0 0 0-6.269 7.97c-1.741 2.668-4.016 6-4.5 9.212-.453 2.981 2.37 3.928 4.814 4.381 3.058.488 6.192.123 9.056-1.055 6.861-2.646 11.537-8.223 16.185-13.656a60.5 60.5 0 0 1 7.84-8.027 65.9 65.9 0 0 1 8.6-5.509c5.037-2.9 10.5-6.048 13.25-11.417 1.344-2.644 1.965-5.769.538-8.513z" class="AP"/><path d="M611.713 207.983l-23.768 12.757-113.215-25.368 21.5-13.668z" fill="#ad7b61"/><path d="M551.092 68.212l.075-.724c.385-2.7.337-5.445-.143-8.13a10.2 10.2 0 0 0-4.368-6.636c-3.042-1.83-6.959-1.356-10.291-.131-7.316 2.692-13.175 8.7-16.458 15.771-3.15 7.183-4.271 15.093-3.239 22.869 1.436 12.537 7.174 24.163 9.88 36.489 1.983 9.033 2.327 18.3 3.388 27.466.844 7.292 1.288 20.179 9.081 23.712 1.811.896 3.963.75 5.636-.382 1.419-1.088 2.032-2.909 2.478-4.64 5.39-20.929-2.576-42.234-2.062-63.324.35-14.262 4.493-28.155 6.023-42.34zM516.87 151.8c-.9-3.769-2.55-7.553-3.49-11.176-3.668-14.145-2.923-29.531-9.8-42.772a33.96 33.96 0 0 0-5.544-7.919c-1.622-1.686-3.843-3.412-6.332-2.7-2.322.666-3.552 3.173-4.107 5.329a27.4 27.4 0 0 0-.28 10.594c1.211 8.539 4.264 17.018 7.116 25.122 1.584 4.5 3.36 8.912 5.153 13.329 1.829 4.5 3.287 9.144 4.758 13.774.922 2.906.929 6.1 2.3 8.874 2.168 4.363 5.79 3.288 8.32-.083 2.966-3.942 2.911-8.148 1.906-12.372z" class="AP"/><path d="M591.476 211.949a.74.74 0 0 1-.7-.985c.135-.386 3.5-9.606 18.083-24.374a114.91 114.91 0 0 0 14.2-16.93 65.08 65.08 0 0 1 8.595-10.4c9.1-8.93 15.5-11.177 15.764-11.269a.74.74 0 0 1 .478 1.4h0c-.063.021-6.381 2.26-15.208 10.925a63.84 63.84 0 0 0-8.417 10.2 116.29 116.29 0 0 1-14.36 17.119c-14.308 14.494-17.711 23.737-17.743 23.829-.106.291-.382.485-.692.485zm-16.574 3.3a.81.81 0 0 1-.121-.01.74.74 0 0 1-.608-.849c.136-.818 3.361-20.133 7.081-28.932 1.267-3 3.314-8.135 5.687-14.086l13.742-33.151c5.086-10.788 9.81-27.451 9.857-27.618a.74.74 0 0 1 1.239-.368.74.74 0 0 1 .195.724c-.003.015-.007.03-.012.044-.048.168-4.806 16.949-9.943 27.846-3.4 7.212-9.114 21.549-13.706 33.069l-5.7 14.114c-3.652 8.637-6.951 28.4-6.984 28.6a.74.74 0 0 1-.727.617zm-6.794-5.337a.74.74 0 0 1-.738-.719c-.007-.274-.7-27.684 2.476-44.043 2.251-11.581 2.422-30.248 2.514-40.277.06-6.525.092-7.237.337-7.618a.74.74 0 0 1 1.3.681c-.1.534-.132 3.512-.164 6.951-.092 10.076-.264 28.832-2.541 40.546-3.15 16.2-2.457 43.448-2.449 43.721a.74.74 0 0 1-.719.758zm-24.269-6.215a.74.74 0 0 1-.739-.739c-.002-.029-.002-.057 0-.086.058-1.552-2.63-34.948-4.31-50.885-1.323-12.55-5.256-34.862-7.858-49.626l-1.722-9.888c-1.743-10.433 5.424-25 5.73-25.62a.74.74 0 0 1 .983-.356.74.74 0 0 1 .356.983l-.016.031c-.072.146-7.26 14.76-5.6 24.718l1.719 9.875c2.607 14.784 6.545 37.125 7.873 49.726 1.575 14.94 4.486 50.258 4.3 51.262-.063.347-.363.601-.716.605zM513.2 191.763h-.038a.74.74 0 0 1-.7-.774c.012-.244 1.187-24.492-1.93-33.469-3.174-9.141-12.7-46.158-12.8-46.531a.74.74 0 0 1 .536-.882.74.74 0 0 1 .895.514c.1.372 9.611 37.33 12.765 46.414 3.212 9.247 2.061 33.02 2.01 34.028a.74.74 0 0 1-.738.7zm-67.212-59.023c-.25 0-.483-.126-.619-.336l-25.187-38.687a.74.74 0 0 1 .574-1.161.74.74 0 0 1 .664.355h0l25.188 38.687a.74.74 0 0 1-.619 1.142z" fill="#456664"/><path d="M352.408 191.76a.74.74 0 0 1-.739-.739h0V6.196a.74.74 0 0 1 .739-.739.74.74 0 0 1 .739.739v184.827a.74.74 0 0 1-.739.737z" fill="#f0f0f0"/><path d="M366.27 387.648L91.797 285.813l-.259.694 273.011 101.288 1.721-.147zm222.628 22.212L162.475 258.894l-.244.7 424.225 150.178q1.221.041 2.442.088zm174.136-1.673L240.149 237.598l-.229.7 521.824 170.24 1.29-.351zm66.58-45.741l-.753.562-516.223-142.466.192-.717zM233.703 404.03L15.708 307.686l-.3.68 216.7 95.768q.8-.05 1.595-.104z" class="AK"/><path d="M239.656 211.544v3.359l-6.573-2.652zm-9.703 2.219a2.22 2.22 0 0 1-2.033-1.333l-16.712-38.44c-.504-1.115-.009-2.427 1.105-2.931s2.427-.011 2.932 1.102l.027.062 16.715 38.44a2.22 2.22 0 0 1-2.031 3.1z" class="AI"/><path d="M142.277 208.872l145.031 42.342v-20.187l-145.936-38.339z" class="AO"/><g class="AI"><path d="M68.402 327.56c-.891.001-1.656-.634-1.818-1.51s.324-1.743 1.156-2.062l71.782-27.553V187.38c0-.66.352-1.27.923-1.6s1.276-.33 1.847 0 .924.94.923 1.6v111.6l-74.153 28.463a1.84 1.84 0 0 1-.661.117z"/><path d="M55.746 205.765v3.471l147.076 46.669 86.394-23.527v-3.986z"/></g><path d="M55.746 205.761l146.819 45.511 86.652-22.884-147.847-43.716z" class="AO"/><g class="AI"><path d="M214.337 371.014a1.85 1.85 0 0 1-1.819-1.51c-.163-.876.324-1.744 1.156-2.062l71.783-27.554V230.832a1.85 1.85 0 0 1 1.847-1.847 1.85 1.85 0 0 1 1.847 1.847v111.6l-74.153 28.464a1.86 1.86 0 0 1-.661.118zm1.025-161.653l8.678-2.507 15.62 4.693-8.742 2.378z"/><path d="M215.362 209.361v1.96l15.524 4.468 8.774-2.054s-.541-1.4-1.061-1.579-6.46-.9-7.039-.611-16.198-2.184-16.198-2.184z"/></g><path d="M230.908 214.307l-14.785-4.3a.37.37 0 0 1-.251-.457.37.37 0 0 1 .457-.251h0l14.591 4.246 8.129-2.112a.37.37 0 0 1 .45.264.37.37 0 0 1-.264.45zm-1.237-2.719a4.31 4.31 0 0 1-2.177-.593c-1.175-.7-2.093-2.976-2.131-3.072a.37.37 0 0 1 .206-.48.37.37 0 0 1 .48.206h0c.379 1.039 1.005 1.97 1.824 2.713a3.37 3.37 0 0 0 2.922.269c.6-.265.462-1.054.461-1.062a.37.37 0 0 1 .298-.428.37.37 0 0 1 .429.298c.159.752-.205 1.516-.888 1.868-.45.191-.935.287-1.424.281z" class="AJ"/><g class="AI"><path d="M142.277 161.737l24.72-6.816 73.759 14.53-28.626 9.3zm-42.595 30.115l34.117-9.565 68.666 18.165-34.382 10.577z"/><path d="M212.13 178.748l-9.664 21.7-68.667-18.165 8.478-20.55 36 4.114c.645.386 33.853 12.901 33.853 12.901z"/><path d="M240.756 169.451v1.414l-27.641 8.807-10.278 21.925-34.974 10.79-68.181-19.156v-1.375l44.852-5.747c.836 0 72.759-18 72.759-18z"/></g><path d="M167.546 211.29l-.1-.029-66.958-18.69a.37.37 0 0 1-.124-.482.37.37 0 0 1 .469-.167c1.232.412 63.755 17.778 66.708 18.6l34.321-10.373 9.635-22.258 27.612-8.471a.37.37 0 0 1 .462.244.37.37 0 0 1-.244.462h0l-27.286 8.37-9.635 22.261-.165.049zm32.462-11.188c-.032 0-.063-.004-.094-.012l-65.119-17.157a.37.37 0 0 1-.263-.451.37.37 0 0 1 .451-.263l65.119 17.157a.37.37 0 0 1 .273.404.37.37 0 0 1-.367.322zm10.153-22.119c-.027 0-.054-.003-.081-.009l-67.239-15.235a.37.37 0 0 1-.19-.611.37.37 0 0 1 .353-.109l67.24 15.234a.37.37 0 0 1-.082.73z" class="AJ"/><path d="M139.166 73.633l3.288-1.108 105.754 22.777-.325 62.884-2.454 1.739z" class="AI"/><g class="AJ"><path d="M165.426 163.486l16.817-4.425 25.1 4.944-14.67 5.33z"/><path d="M165.426 163.487v-1.215l16.922-4.566 24.992 4.8v1.5l-26.642-.426c-.403 0-15.272-.093-15.272-.093z"/><path d="M180.394 161.548v-22.1l15.519 3.07v21.684z"/><path d="M139.166 73.632v61.8l106.265 24.488V97.272z"/></g><path d="M140.485 75.814v58.208l103.479 23.885V98.988z" class="AK"/><g class="AI"><path d="M195.201 147.547c-.026 0-.051-.003-.076-.008l-14.445-3.027a.37.37 0 0 1-.286-.437.37.37 0 0 1 .437-.286l14.445 3.027a.37.37 0 0 1-.075.731zm-1.633 17.789l-13.543-2.726v-4.026a.37.37 0 1 1 .739 0v3.422l12.763 2.568 2.016-.645v-3.283a.37.37 0 1 1 .739 0v3.823z"/><path d="M193.508 164.572a.37.37 0 0 1-.37-.368h0v-16.48a.37.37 0 1 1 .739 0v16.481a.37.37 0 0 1-.369.367zm-.889 3.751l-.1-.022-25.763-5.483a.37.37 0 0 1-.284-.438c.044-.198.239-.325.438-.285l25.66 5.461 13.906-4.951a.37.37 0 0 1 .248.7h0zm-3.504-9.001a.4.4 0 0 1-.083-.009l-3.654-.831a.37.37 0 0 1-.287-.36v-12.928a.37.37 0 0 1 .135-.286c.086-.069.198-.097.307-.076l3.659.734a.37.37 0 0 1 .3.362v13.025a.37.37 0 0 1-.377.369zm-3.284-1.495l2.916.663v-12.26l-2.92-.585z"/></g><g class="AR"><path d="M143.151 78.558l-.149 53.435 18.48 4.494.15-53.494zm89.209 20.19v53.453l8.741 1.847v-53.114zm-3.662.37c-.027 0-.054-.003-.08-.009l-65.191-14.528a.37.37 0 0 1-.28-.44.37.37 0 0 1 .44-.28l65.191 14.528a.37.37 0 0 1 .29.401.37.37 0 0 1-.37.329z"/><use xlink:href="#B"/><path d="M223.163 140.872c-.027 0-.054-.003-.08-.009l-13.392-2.975a.37.37 0 0 1 .16-.722l13.392 2.976a.37.37 0 0 1 .29.401.37.37 0 0 1-.37.329zm0-3.763c-.027 0-.054-.003-.08-.009l-13.392-2.976a.37.37 0 0 1-.28-.44.37.37 0 0 1 .44-.28h0l13.392 2.976a.37.37 0 0 1 .29.401.37.37 0 0 1-.37.329z"/><use xlink:href="#B" y="-11.294"/><use xlink:href="#C"/><path d="M166.832 100.383c-.025 0-.05-.003-.074-.008l-3.324-.678a.37.37 0 0 1-.299-.429.37.37 0 0 1 .429-.298h.017l3.324.677a.37.37 0 0 1 .296.399.37.37 0 0 1-.369.332z"/><use xlink:href="#C" y="15.705"/><path d="M166.832 116.087c-.025 0-.05-.003-.074-.008l-3.324-.677a.37.37 0 0 1-.299-.428.37.37 0 0 1 .429-.298h.017l3.324.677a.37.37 0 0 1 .296.399.37.37 0 0 1-.369.332zm0 7.852a.38.38 0 0 1-.074-.008l-3.324-.677a.37.37 0 0 1-.288-.436.37.37 0 0 1 .435-.288l3.324.677a.37.37 0 0 1 .296.399.37.37 0 0 1-.369.332z"/><use xlink:href="#C" y="39.26"/><path d="M185.37 135.472l-6.452-17.81-9.567 13.967a.37.37 0 0 1-.512.098.37.37 0 0 1-.099-.512h0l10.379-15.155 6.429 17.743 5.051-8.014 4.494 4.969 12.274-27.179 6.8 17.716 12.047-11.3a.37.37 0 0 1 .633.13.37.37 0 0 1-.086.365c-.014.016-.03.031-.047.044l-12.847 12.054-6.56-17.09-12.009 26.594-4.6-5.083z"/></g><g class="AK"><path d="M151.689 133.467a.37.37 0 0 1-.37-.368V82.312a.37.37 0 0 1 .56-.336.37.37 0 0 1 .179.336v50.786a.37.37 0 0 1-.369.369z"/><path d="M160.275 91.011c-.029 0-.058-.003-.086-.01l-16.067-3.878a.37.37 0 0 1-.272-.446.37.37 0 0 1 .445-.272l16.066 3.878a.37.37 0 0 1 .281.402.37.37 0 0 1-.367.326zm0 8.107c-.029 0-.058-.004-.086-.011l-16.068-3.877a.37.37 0 0 1-.272-.445.37.37 0 0 1 .445-.272l16.066 3.878a.37.37 0 0 1 .286.403.37.37 0 0 1-.372.326zm0 8.108c-.029 0-.058-.004-.086-.011l-16.067-3.878a.37.37 0 0 1-.272-.445.37.37 0 0 1 .445-.272l16.066 3.878a.37.37 0 0 1 .286.403.37.37 0 0 1-.372.326z"/><use xlink:href="#D"/><use xlink:href="#D" y="7.785"/><path d="M160.275 131.114c-.029 0-.058-.004-.086-.011l-16.067-3.878a.37.37 0 0 1-.272-.445.37.37 0 0 1 .445-.272l16.066 3.878a.37.37 0 0 1 .281.402.37.37 0 0 1-.367.326z"/></g><path d="M214 179.759a.37.37 0 0 1-.112-.722l3.159-1.006a.37.37 0 0 1 .484.196.37.37 0 0 1-.196.484.47.47 0 0 1-.064.02l-3.159 1.007c-.036.013-.074.02-.112.021z" class="AJ"/><g class="AK"><path d="M122.743 193.522c-1.354-1.2 16.424-7.756 16.424-7.756l46.294 13.035-21.228 6.356z"/><path d="M185.46 198.801v-1.089l-46.294-12.777-5.681 2.587 28.532 9.926z"/></g><path d="M164.236 204.294l-19.121-5.136a.37.37 0 0 1-.26-.452.37.37 0 0 1 .452-.26l18.922 5.083 20.447-5.881a.37.37 0 0 1 .2.71zm16.158-6.108a.34.34 0 0 1-.1-.015l-41.228-11.727a.37.37 0 0 1-.27-.447.37.37 0 0 1 .447-.27l.023.007 41.228 11.727a.37.37 0 0 1 .269.406.37.37 0 0 1-.369.319z" class="AR"/><path d="M157.53 194.187c.379-.231.611-.642.614-1.086-.01-.402-.192-.78-.5-1.039-.066-.468-.625-.888-.975-1.161-.781-.609-5-3.061-7.7-2.84-2.547.209-6.6 3.011-6.6 3.011l-4.006.689 5.049 5.6c.022.035.05.066.083.092l.014.016c.016.012.034.022.052.031h0c.1.067.227.078.337.028 1.65-.015 3.183.435 4.813-.176.793-.441 1.627-.804 2.491-1.083 1.056-.182 2.274-.853 3.332-.817.841.028 2.741 1.171 3.363.351.469-.631.129-1.201-.367-1.616z" class="AN"/><path d="M157.199 194.791a.37.37 0 0 1-.289-.139c-.519-.377-1.114-.638-1.744-.764a7.75 7.75 0 0 0-2.487-.388.37.37 0 0 1-.398-.339.37.37 0 0 1 .339-.398 8.29 8.29 0 0 1 2.755.416c1.634.482 2.039.908 2.125 1.027a.37.37 0 0 1-.088.516c-.062.044-.136.067-.212.068zm-.282-2.59c-.039 0-.077-.006-.114-.018l-3.386-1.109a.37.37 0 0 1-.265-.45.37.37 0 0 1 .45-.265.3.3 0 0 1 .044.015l3.385 1.109a.37.37 0 0 1 .251.409.37.37 0 0 1-.366.311z" class="AV"/><g class="AN"><path d="M95.524 109.916c-.437 2.347-1.458 5.36-3.375 7.033-1.547 1.362-4.234 1.222-6.2 1.133a24.61 24.61 0 0 1-6.6-1.17c-5.574-1.866-5.737-.452-11.082-10.527s-.1-23.274-.1-23.274 11.4-6.322 15.8-3.983c2.576 1.347 8.891 1.607 9.712 4.042a47.99 47.99 0 0 1 1.939 7.817c.237 1.443.422 2.9.541 4.368.052.525.088 1.051.118 1.577a53.3 53.3 0 0 1-.753 12.984z"/><path d="M69.981 105.854l-.827 17.383a8.47 8.47 0 0 0 4.118 7.676 11.3 11.3 0 0 0 5.916 1.708q.354-.008.69-.036a8.41 8.41 0 0 0 7.5-8.142l.634-14.131z"/></g><path d="M87.367 100.434a3.46 3.46 0 0 1 1.19-3.072 2.24 2.24 0 0 1 1.688-.332c.226.052.833.5 1.222.683l.039-1.6a14.39 14.39 0 0 1 .275-3.39.88.88 0 0 1 .144-.32 1.32 1.32 0 0 1 .338-.246c.514-.327.774-1 1.131-1.485 1.589-2.142 2.408-3.916 2.036-6.626-.356-2.585-1.234-5.07-2.579-7.306l-.222-.325a6.58 6.58 0 0 0-4.061-2.814c-1.428-.276-2.887-.348-4.335-.213-1.756-.856-3.749-1.099-5.659-.689a33.21 33.21 0 0 0-6.273 1.913c-1.494.482-2.849 1.319-3.949 2.439a5.04 5.04 0 0 0-.879 1.433c-.143.357-.144.887-.315 1.208a3.1 3.1 0 0 1-1.369 1.049 18.61 18.61 0 0 0-4.434 2.64 5.01 5.01 0 0 0-1.686 4.75 4.8 4.8 0 0 0-.668 2.119c-.16 2.485 1.532 4.476 2.91 6.348.857 1.166.789 2.381 1.142 3.73a11.48 11.48 0 0 0 1.62 3.251 55.95 55.95 0 0 1 3.988 7.328c-.073 1.6-.679 2.809.977 3.516a13.64 13.64 0 0 0 5.146.565l7.007-.3c2.122-.128 1.677-.361 2.912-2.03 1.045-1.41 2.965-1.71 3.769-3.223a9.2 9.2 0 0 0 1.177-4.6 5.21 5.21 0 0 1-2.282-4.401zm8.912-3.502a1.44 1.44 0 0 1-.3.029c-.377.008-.947-.1-.962-.584-.007-.415.555-.741.874-.9l.274-.118.114 1.573z" class="AI"/><g class="AN"><path d="M96.016 98.064a26.26 26.26 0 0 1 1.8 6.97c.171 1.455-2.872 1.377-2.872 1.377zm20.443 253.079l.767 3.4 5.939 2.081c.325-.045 3.983-5.049 3.983-5.049l-2.829-1.728-3.539-1.044c-.213-.017-4.321 2.34-4.321 2.34zm-43.72-3.186l.04 3.72 6.291 2.217c.148-.146 3.511-5.536 3.511-5.536l-4.005-1.582c-.296 0-5.837 1.181-5.837 1.181z"/><path d="M80.022 333.713l.074 13.8-2.047 4.3-5.309-3.863-2.8-13.167zm42.68 1.302l1.618 14.834-1.721 4.856-6.139-3.562-4.484-13.845z"/></g><g class="AW"><path d="M81.881 245.442c-.456 3.344-.868 9.666-1.167 16.6-.487 11.3-.681 24.226-.359 28.55.37 4.861.555 3.425.03 49.236 0 0-1.773 2.993-8.754 2.993s-10.585-1.5-10.585-1.5-4.952-17.208-3.726-28.176-.726-6.919-1.474-15.4-1.677-18.315-2.672-24.053-5.237-46.132-5.237-55.978c0-4.467 1.181-10.677 2.469-16.123l.9-3.629c1.25-4.855 2.372-8.439 2.372-8.439s26.417 6.315 27.518 8.238c.021.036.034.077.037.119 0 .486.142 3.24.322 7.153l.165 3.778c.441 10.561.935 30.961.161 36.631z"/><path d="M124.867 340.535c-2.06 2.927-5.009 5.113-8.409 6.233-5.589 1.781-11.081 1.414-11.215.838s-5.888-20.036-6.427-27.024-4.018-21.607-6.367-27.121-7.668-17.029-9.352-23.747c-.412-1.646-1.3-4.415-2.387-7.669-3.374-10.025-8.783-24.615-8.783-24.615s-1.362-21.48-1.422-30.3c-.008-1.511.015-2.813.1-3.77v-.023c.561-6.5 4.22-5.439 5.941-5.791 1.552-.038 3.104.034 4.646.217 7.25.6 20.223 2.117 20.223 2.117l1.175 4.377.935 3.651c1.257 4.938 2.873 16.924 4.34 24.106 2.918 14.327 7.609 43.97 10.287 56.771s6.715 51.75 6.715 51.75z"/></g><path d="M103.296 131.683s9.353 4.882 12.221 12.328c1.3 3.37 4.162 10.718 4.613 12.969.387 1.929 6.328 14.768 6.935 16.653 2.2 6.82 15.038 17.089 15.038 17.089s5.414 5.478 4.991 6.789-1.966 1.042-2.785 1.409c-2.582 1.156-11.422.748-14.246.492-5.166-.468-5.829-3.8-11.441-3.8s-6.9-5.225-10.552-9.4-5.677-.465-6.659-8.864-3.351-15.507-2.354-17.378 4.239-28.287 4.239-28.287z" class="AJ"/><path d="M87.674 355.764c2.231-1.184 4.556-3.024 3.227-5.172-1.844-2.981-5.56-1.178-8.318-2.233l-.093-.041a7.7 7.7 0 0 1-1.45 1.832 7.21 7.21 0 0 1-2.705 1.754c-1.817.601-3.791.52-5.553-.227l.455 5.509c.041 1.724 2.263 2.485 4.563 2.263s4.352-1.416 7.307-2.535a23.11 23.11 0 0 0 2.567-1.15zm43.089-5.03a18.13 18.13 0 0 1-4.531.064l-.463-.064s-2.945 3.9-5.271 4.119a9.28 9.28 0 0 1-3.271-.309c.774 2.8 1.83 6.006 2.777 6.8a3.95 3.95 0 0 0 2.843.64c1.43-.148 2.828-.522 4.141-1.107a23.72 23.72 0 0 0 3.847-2.025c1.264-.733 2.37-1.709 3.255-2.871a4.32 4.32 0 0 0 .844-2.2c.053-1.392-2.019-3.397-4.171-3.047z" class="AX"/><g fill="#ebbd94"><path d="M79.918 260.092c-.139 0-.266-.077-.331-.2-.073-.148-7.426-14.8-9.38-17.459-2.019-2.741-3.135-7.419-3.18-7.616a.37.37 0 0 1 .466-.439.37.37 0 0 1 .253.269c.011.048 1.128 4.729 3.055 7.348 1.992 2.706 9.143 16.961 9.447 17.567a.37.37 0 0 1-.166.5c-.051.025-.107.039-.164.039z"/><path d="M75.738 251.929a.37.37 0 0 1-.245-.093l-10.1-8.914a.37.37 0 0 1-.033-.521.37.37 0 0 1 .521-.033l10.1 8.914a.37.37 0 0 1-.244.647zm34.21 46.7c-2.186-.071-4.366-.281-6.526-.628a38.38 38.38 0 0 1-9.725-3.286.37.37 0 0 1 .331-.661h0a38.37 38.37 0 0 0 9.5 3.215c2.125.339 4.27.546 6.421.62a.37.37 0 1 1 0 .739zm-1.912 2.12h-.053l-9.475-1.377a.37.37 0 0 1-.313-.418.37.37 0 0 1 .418-.313l9.476 1.372a.37.37 0 0 1 .314.391.37.37 0 0 1-.366.343z"/></g><path d="M103.521 207.905c-7.186 1.365-14.534 1.669-21.809.9a107.8 107.8 0 0 1-11.208-1.683 167 167 0 0 1-20.1-5.536l.9-3.629a167.07 167.07 0 0 0 19.3 5.372c3.616.762 7.27 1.33 10.946 1.7a72.13 72.13 0 0 0 21.039-.778l.932 3.654z" class="AL"/><path d="M54.035 205.12l1.497-7.305 1.447.296-1.497 7.305zm30.478 5.121l.656-6.266 1.469.154-.656 6.266z" class="AW"/><path d="M109.884 137.708c-.396-.898-.939-1.724-1.607-2.443-2.179-2.384-5.526-3.811-8.45-5.426a29.6 29.6 0 0 1-6.944-5.185 24.5 24.5 0 0 0-3.431-3.3c-1.612-.991-3.4-1.661-5.266-1.975a74.22 74.22 0 0 0-13.321-1.7c-1.093-.13-2.201.031-3.212.467-1.065.762-1.939 1.76-2.554 2.916-4.188 5.986-12.481 8.118-16.444 14.256a18.9 18.9 0 0 0-2.579 10.7 85.37 85.37 0 0 0 1.407 11.071c.668 4.789 1.069 9.611 1.2 14.444.452 10.846-2.5 23.767-.364 27.759 3.816 7.119 15.25 7.885 25.391 5.838 6.991-1.41 28.079-2.7 28.079-2.7s5.806-7.5 5.938-11.5c.286-8.722 1.115-17.416 1.838-26.109.584-7.024 1.157-14.068 1.179-21.121a14.83 14.83 0 0 0-.86-5.992z" class="AJ"/><path d="M107.038 185.031a.37.37 0 0 1-.3-.159c-.271-.394-6.656-9.7-8.267-14.416-1.051-3.084-.721-5.937-.373-8.959.241-1.744.359-3.502.354-5.262-.118-5.244 11.966-14.509 12.48-14.9a.37.37 0 0 1 .517.071.37.37 0 0 1-.07.517c-.123.093-12.3 9.426-12.189 14.3a38.63 38.63 0 0 1-.359 5.363c-.339 2.937-.659 5.71.339 8.635 1.576 4.622 8.11 14.139 8.176 14.235a.37.37 0 0 1-.1.512h0a.36.36 0 0 1-.208.063zM88.78 125.378c-.052 0-.103-.011-.151-.032-4.013-1.599-8.23-2.631-12.528-3.067-7.44-.833-10.629.691-10.66.707a.37.37 0 0 1-.357-.648l.031-.015c.135-.067 3.417-1.634 11.07-.779 4.374.445 8.665 1.497 12.748 3.127a.37.37 0 0 1-.151.706zm-4.811 77.236a.37.37 0 0 1-.2-.683c2.067-1.285 4.049-2.702 5.933-4.242a22.8 22.8 0 0 0 2.818-3.019.37.37 0 0 1 .652.057.37.37 0 0 1-.052.378h0c-.874 1.131-1.851 2.179-2.917 3.131a56.31 56.31 0 0 1-6.04 4.322.37.37 0 0 1-.194.056z" class="AI"/><path d="M77.119 358.459c-1.187.05-2.355-.309-3.308-1.018a.37.37 0 0 1 .125-.627.37.37 0 0 1 .362.072c.972.676 2.16.966 3.334.814 2.222-.175 8.151-2.708 10.059-3.73a6.71 6.71 0 0 0 2.414-2.169.37.37 0 0 1 .64.007.37.37 0 0 1-.004.369c-.679 1.03-1.608 1.871-2.7 2.445-1.687.9-7.864 3.619-10.349 3.815-.197.015-.384.022-.573.022zm44.748 2.236a4.15 4.15 0 0 1-2.377-.491.37.37 0 0 1 .062-.647.37.37 0 0 1 .374.047c.031.021 1.287.8 5.129-.06a14.61 14.61 0 0 0 7.049-4.19l.306-.3a5.4 5.4 0 0 0 1.164-1.992.37.37 0 0 1 .706.22 6.11 6.11 0 0 1-1.361 2.309l-.295.288a14.86 14.86 0 0 1-10.756 4.814z" fill="#522828"/><g class="AP"><path d="M157.285 222.635l28.2-7.154 18.746 7.4-29.935 8.864z"/><path d="M157.285 222.635v-4.143l8.7-2.03 1.473 11.263z"/></g><path d="M158.899 222.018l15.458 8.386 27.542-7.576v-3.416l-16.529-5.58-26.513 5.334z" class="AK"/><path d="M175.219 227.726l28.5-8.074-19.269-7.5-27.163 6.336z" class="AP"/><path d="M160.03 219.303a.37.37 0 0 1-.371-.326.37.37 0 0 1 .286-.403l24.373-5.751a.37.37 0 0 1 .477.441.37.37 0 0 1-.267.268l-.041.01-24.372 5.751a.4.4 0 0 1-.085.01z" fill="#38540f"/><path d="M170.408 223.34l3.237-1.246 4.7 2.585-3.6 1.108z" class="AW"/><g class="AK"><path d="M185.57 195.92l7.312-14.006c.189-.116 8.781 2.312 8.781 2.312l-7.018 14.387z"/><path d="M201.663 184.229l.132 1.36-6.625 13.755-9.266-2.516-.334-.906z"/></g><path d="M186.862 194.982l6.391-12.224 7.585 1.894-6.077 12.614z" class="AR"/><g class="AI"><path d="M125.008 213.25a11.25 11.25 0 0 1 1.966-1l21.745-2.88a.74.74 0 0 1 .799 1.014.74.74 0 0 1-.599.45h-.031l-21.745 2.88c-.114.022-2.135-.464-2.135-.464zm317.323 59.893a1.48 1.48 0 0 1-.734-2.761l31.8-18.175a1.48 1.48 0 0 1 1.981.569 1.48 1.48 0 0 1-.514 1.996l-31.8 18.175a1.46 1.46 0 0 1-.733.196z"/><path d="M481.036 269.922c-.142 0-.282-.021-.418-.061l-40.083-11.819a1.48 1.48 0 0 1-.999-1.835 1.48 1.48 0 0 1 1.835-.999l40.082 11.819a1.48 1.48 0 0 1-.417 2.9z"/></g><path d="M412.018 149.972l9.686-14.666 9.686 10.373-14.382 14.154-4.987-9.863zm8.782 99.086l4.991 11.513 4.915 3.908 2.978-7.061s-2.8-11.415-3.088-11.149-9.796 2.789-9.796 2.789z" class="AL"/><path d="M425.792 260.572a3.68 3.68 0 0 0 3.722 0c1.8-1.184 4.17-3.15 4.17-3.15s2.921 5.812 2.987 6.89-6.5 12.528-8.647 14.064-6.2 2.183-6.936-.214 4.704-17.59 4.704-17.59z" class="AM"/><path d="M423.861 278.738c-.805.011-1.601-.172-2.321-.534a.37.37 0 0 1-.14-.503.37.37 0 0 1 .503-.14 4.87 4.87 0 0 0 5-.558c2.808-1.9 8.437-12.846 8.493-12.956a.37.37 0 0 1 .658.337c-.235.457-5.773 11.231-8.738 13.232a6.1 6.1 0 0 1-3.455 1.122zm.288-10.092a.37.37 0 0 1-.374-.364.37.37 0 0 1 .363-.374l4.377-.137c.203-.003.371.155.381.358a.37.37 0 0 1-.356.381h0l-4.378.137zm1.742-3.05c-1.138 0-1.153-.072-1.191-.258l.362-.074v-.369l4.669-.115.019.739-3.859.077z" class="AK"/><path d="M425.5 265.601v12.548l2.955 5.54 5.54-5.294s1.97-11.587 1.6-11.457-10.095-1.337-10.095-1.337z" class="AL"/><path d="M425.5 278.149a3.68 3.68 0 0 0 3.417 1.478c2.124-.37 5.078-1.232 5.078-1.232s.37 6.494 0 7.51-10.941 8.91-13.527 9.464-6.556-.461-6.279-2.955 11.311-14.265 11.311-14.265z" class="AM"/><path d="M418.822 294.518c-1.622.04-3.177-.65-4.236-1.88a.37.37 0 0 1 .59-.446 4.88 4.88 0 0 0 4.809 1.476c3.331-.621 12.851-8.431 12.946-8.51a.37.37 0 0 1 .599.224.37.37 0 0 1-.13.346c-.4.327-9.762 8.009-13.279 8.665a7.07 7.07 0 0 1-1.299.125zm6.178-7.967a.4.4 0 0 1-.137-.025l-4.071-1.616a.37.37 0 1 1 .273-.687l4.071 1.616a.37.37 0 0 1-.136.713zm2.163-2.289c-4.619-1.867-4.619-1.867-4.56-2.167l.726.143-.362-.073.145-.339 4.329 1.751z" class="AK"/><g class="AS"><path d="M483.338 140.521c.052.655-1.083 10.815 2.982 14.209s12.5 3.8 13.05 5.6-1.016 9.311-2.677 10.757-8.532-2.792-15.15-.6c-3.5 1.157-7.148 13.948-7.148 13.948z"/><path d="M455.263 124.807s28.259 3.131 28.989 4.74-2.278 20.317-3.094 25.13c-2.8 16.5-5.833 29.906-5.833 29.906l-45.487-4.982z"/></g><path d="M435.658 166.605l-1.663 7.881s39.613 30.934 43.553 19.422-3.663-24.749-3.663-24.749z" class="AJ"/><path d="M482.056 133.033c-.001.077-.006.153-.016.229l-.029.48-.074 1.478-.007.6v.008l-.4 6.693-.067.724-.14 1.736-.052.8-.081 2.888c-.016 2.515-.208 5.025-.576 7.513l-.207 1.558-.1.739-.03.207-.1.724-.48 3.789c-.096.516-.237 1.023-.421 1.515l-.251.724a45.8 45.8 0 0 1-2.415 5.5l-.406.709c-.562.924-1.086 1.544-1.477 1.551-8.865.244-13.371-1.337-22.146-2.5-3.768-.5-16.924-4.078-16.924-4.078s-1.152-.561-1.906-2.859a11.23 11.23 0 0 1-.207-.738c-.037-.14-.074-.3-.1-.451a9.48 9.48 0 0 1-.133-.79c-.282-2.297-.237-4.622.133-6.907.061-.404.1-.811.118-1.219.022-.229.03-.465.044-.694.015-.576.015-1.152-.014-1.729.001-.175-.009-.35-.03-.524-.007-.251-.029-.5-.059-.753-.226-2.181-.676-4.332-1.344-6.42-.65-1.982-.886-4.076-.694-6.153l.067-.539c.008-.087.02-.173.037-.259a10.05 10.05 0 0 1 .081-.5c.108-.561.246-1.117.414-1.663.554-1.847 1.271-3.612 1.9-5.4.074-.236.155-.473.236-.709.356-1.067.644-2.155.865-3.258.051-.259.1-.524.133-.79.037-.229.067-.465.089-.7.1-.864-.8-4.173-.739-6.611 0-.066.008-.125.008-.192l.458-.4 1.049-.923.6-.51c3.391-2.733 6.589-3.309 26.424-1.861 3.516.168 6.965 1.026 10.149 2.526 0 0 .1.051.288.14.069.041.14.078.214.111.051.03.1.059.162.089a17.64 17.64 0 0 1 5.932 5.319 16.1 16.1 0 0 1 .45.658l.3.473c.126.206.251.414.362.621a14.29 14.29 0 0 1 .414.76c1.326 2.574.941 6.09.698 9.268z" class="AM"/><path d="M473.957 84.514a.28.28 0 0 0-.339-.1 8.24 8.24 0 0 0-1.233-4.2c-.423-.666-.966-1.248-1.6-1.718-.96-.707-2.25-.95-3.123-1.777-.788-.747-1.1-1.879-1.788-2.7-.617-.736-1.407-1.307-2.3-1.662a5.5 5.5 0 0 0-3.42-.2c-2.384-.58-4.825-.891-7.278-.927-1.827.025-4.2.158-5.654 1.42a4.07 4.07 0 0 0-1.092 1.99c-.49 1.237-2.124 1.353-3.244 1.88-3.483 1.642-5.3 5.03-3.51 8.6.87 1.732.468 2.617-.4 4.231-.444.66-.658 1.447-.609 2.241.259 1.449 2.352 1.924 3.6 2.187 1.072 2.807 4.832 3.762 7.763 4.684 2.689.843 5.419 1.549 8.18 2.114a17.33 17.33 0 0 1 3.834 1.432 9.05 9.05 0 0 0 1.054.339c.875.262 1.632.82 2.141 1.579l-.343.853c-.156.429.086.854.241.429.086-.236 3.483-5.068 4.9-7.037.48-.624.852-1.325 1.1-2.072.418-1.412.1-2.689 1.483-3.686a4.88 4.88 0 0 0 2.238-3.554c.227-1.466.393-3.136-.601-4.346z" class="AY"/><g class="AL"><path d="M465.831 101.846c-4.121 8.958-4 8.377-8.554 10.176-1.94.765-3.746 1.692-5.9 1.359-3.031-.468-5.36-3.016-6.621-5.665-1.735-3.626-2.237-10.1-2.379-14.41l-.029-1.473c-.028-1.742 0-2.868 0-2.868a35.48 35.48 0 0 1 .708-6.508c.608-2.152 6.9-2.662 8.985-3.916 3.577-2.181 13.192 2.981 13.192 2.981s4.725 11.359.598 20.324z"/><path d="M464.29 100.862l1.832 14.65s-3.4 4.919-8.353 5.216a8.2 8.2 0 0 1-7.2-3.461L449.2 105.89z"/></g><path d="M445.157 94.548a.84.84 0 0 1 .229.022c.713.161.621 1.457.565 2-.068.658-.648 1.069-1.153.472-.421-.5-.576-2.441.359-2.494zm10.916.254a.82.82 0 0 1 .232.022c.725.164.631 1.48.574 2.028-.069.668-.658 1.086-1.171.479-.435-.505-.589-2.476.365-2.529z" class="AY"/><path d="M450.798 103.626c-.858 0-2.323-.168-2.468-1.293-.05-.869-.009-1.74.121-2.6a.37.37 0 0 1 .419-.312.37.37 0 0 1 .312.419h0c-.12.792-.16 1.594-.12 2.394.082.637 1.557.7 2.254.626a.37.37 0 0 1 .405.33.37.37 0 0 1-.33.405h0a5.28 5.28 0 0 1-.593.031zm-2.601 1.416a7.69 7.69 0 0 0 3.246.472 18.99 18.99 0 0 0 3.924-.767c-.724 1.511-2.249 2.473-3.924 2.478-2.98.118-3.246-2.183-3.246-2.183zm3.12 8.43a2.46 2.46 0 0 1-.934-.115.37.37 0 0 1 .345-.652c.342.089 3.216.182 7.219-1.861a12.03 12.03 0 0 0 5.391-4.862.37.37 0 0 1 .486-.176.37.37 0 0 1 .185.483c-.055.122-1.412 3.01-5.726 5.212a16.08 16.08 0 0 1-6.966 1.971z" class="AT"/><path d="M447.392 93.016c-.651.368-1.982.184-2.733.226l-2.287.064-.029-1.473a6.11 6.11 0 0 1 2.854-.432c.7.036 1.955.085 2.436.694.101.114.152.263.143.415a.57.57 0 0 1-.192.394c-.056.049-.121.087-.192.112zm6.357-.925c.477-.6 1.732-.653 2.436-.689 1.382-.07 3.106.12 3.981 1.33.172.237-.065.513-.3.532a21.98 21.98 0 0 1-3.143-.023c-.749-.044-2.078.142-2.731-.226a.57.57 0 0 1-.238-.924zm16.172-4.386c-.323-4.5-2.289-9.05-7.034-10.043a56.48 56.48 0 0 0-7.589-.968c-2.766-.043-5.518.403-8.129 1.318-1.934.398-3.598 1.622-4.554 3.35-.67 1.272-2.091 4.192-1.006 5.573a1.86 1.86 0 0 0 2.627.056 1.89 1.89 0 0 0 .155-.168c.342-.505.381-.952.9-1.368.297-.186.576-.398.835-.633.029-.033.052-.07.079-.1.089 1.5.5 2.879 1.893 2.948.867.043 1.182-.466 2.084 0 .348.179.459.476.877.626a3.3 3.3 0 0 0 3-.816 8.6 8.6 0 0 0 1.269.591 5.2 5.2 0 0 0 4.13.276 1.11 1.11 0 0 0 .147.2 3.9 3.9 0 0 0 1.072.55c.512.452.883 1.043 1.068 1.7.01.031.331.466.346.316-.029.153.062.303.211.349 1.375-.6 3.051 1.182 3.328 2.444a5.54 5.54 0 0 1-1.7 5.354c.039.559.158 1.126.226 1.634.178 1.34.668 4.329.668 4.329s2.889-6.652 3.827-9.511c.941-2.561 1.373-5.281 1.27-8.007z" class="AY"/><path d="M442.948 130.882l-.022.569-.111 1.182-.1.76-1.485 8.244-.067.31a3.91 3.91 0 0 1-.088.4l-.089.414a34.25 34.25 0 0 1-1.824 6.331c-.338.59-.808 1.093-1.374 1.47a6.79 6.79 0 0 1-.99.583 11.45 11.45 0 0 1-1.794.71l-1.419-.636q-.664-.311-1.307-.664l-1.521-.879h-.008c-.03-.015-.059-.037-.089-.051-2.927-1.891-5.705-4.002-8.31-6.316-1.537-1.322-3.686-2.763-4.964-4.557.411-1.258 1.017-2.445 1.794-3.516a5.34 5.34 0 0 1 .628-.731c.021-.018.041-.038.059-.059.055-.056.114-.108.177-.156.191-.163.371-.338.539-.524 1.307-1.389 3.775-4.646 5.769-7.4q.245-.333.466-.643l2-2.859a13.69 13.69 0 0 1 .5-.694 26.49 26.49 0 0 1 .429-.547 47.09 47.09 0 0 1 4.639-4.742l.156-.133.192.266c1.2 1.625 7.446 10.216 8.141 13.37a2.2 2.2 0 0 1 .073.498z" class="AM"/><g class="AJ"><path d="M418.068 189.735c-1.318-.25-16.584 8.868-18.307 15.02s9.108 22 10.833 28.233 7.251 13.047 9.29 16.167 3.061 4.89 3.061 4.89 9.32-4.07 12.028-4.89 4.925-4.629 4.925-4.629-10.658-25.555-10.008-28.971 0-9.572 0-9.572 30.69-10.1 29.829-10.342-41.651-5.906-41.651-5.906z"/><path d="M480.157 188.159s-.677 17.869-8.064 20.432-18.222 13.232-19.514 14.525-1.451 15.324-2.006 18.381l-5.344 28.21s-10.915.282-15.572-.7l-4.656-.978s0-54.533 1.847-57.368 16.62-9.3 24.007-9.3 29.302-13.202 29.302-13.202z"/></g><path d="M425.133 252.295h-.014a.37.37 0 0 1-.355-.382l1.206-32.5c.002-.096.041-.187.11-.254s.162-.103.258-.102h.015a.37.37 0 0 1 .356.382l-1.206 32.5a.37.37 0 0 1-.37.356z" class="AI"/><path d="M486.414 132.389l-.008.65c-.052 3.243-.391 7.062-.827 10.675-.029.266-.059.532-.1.79-.79 6.345-1.817 11.863-1.995 12.248-.1.222-1.255-.052-2.874-.576-4.2-1.344-11.531-4.321-11.531-4.321l.3-2.571.081-.731 1.455-12.736.1-.849 1.2-10.482.088-.776.93-8.133.289.14c.069.042.14.079.214.111.052.03.1.059.163.089a42.8 42.8 0 0 1 7.461 4.942 18.47 18.47 0 0 1 .7.62 14.2 14.2 0 0 1 3.6 4.662 17.85 17.85 0 0 1 .754 6.248z" class="AM"/><path d="M482.055 121.478l-1.781.414-2.024.635-6.042 1.957-3.2.768a33.2 33.2 0 0 1-16.318-.857c-6.139-1.876-11.931-5.075-17.95-7.386a1.97 1.97 0 0 0-.2-.074 1.27 1.27 0 0 0-.148-.059l.156-.133.458-.4c6 2.3 11.76 5.467 17.884 7.343a33.96 33.96 0 0 0 19.406.022l.243-.066c2.35-.665 4.8-1.714 7.283-2.408q.765-.222 1.529-.377c.238.2.475.407.704.621zm4.358 10.91l-.008.65-.377.037-4.018.665-7.069 1.522c-1.33.262-2.674.447-4.026.554-5.171.429-10.416-.111-15.587-.384-3.154-.17-6.442-.126-9.515-.909-1.065-.282-2.103-.661-3.1-1.13-1.477-.687-2.9-1.514-4.343-2.275s-2.918-1.478-4.417-2.113a59.16 59.16 0 0 0-7.6-2.644l.466-.643a60.57 60.57 0 0 1 7.372 2.578c.939.4 1.863.82 2.778 1.271 1.958.961 3.849 2.142 5.844 3.066 1.023.497 2.091.893 3.191 1.182 3.236.813 6.7.739 10.01.916 4.989.418 10 .497 15 .236a40.55 40.55 0 0 0 5.813-.872 100.37 100.37 0 0 1 5.231-1.063q2.169-.389 4.355-.644zm-.834 11.325l-.1.79-1.174.3-3.036.975-7.1 2.526a26.47 26.47 0 0 1-4.794.983c-5.267.584-10.5-.354-15.764-1.655-3.241-.64-6.394-1.669-9.388-3.065-1.093-.569-2.166-1.175-3.236-1.8l-6.176-3.612c-1.115-.621-2.223-1.227-3.354-1.781-2.222-1.176-4.611-2.006-7.084-2.46a43.95 43.95 0 0 0-4.506-.465 1.86 1.86 0 0 1 .177-.156 5.45 5.45 0 0 0 .54-.524c1.336.1 2.666.214 3.989.436a24.98 24.98 0 0 1 6.988 2.371q1.084.543 2.156 1.13c2.512 1.374 4.979 2.8 7.446 4.248l1.633.961c3.232 1.782 6.71 3.076 10.321 3.842a60.2 60.2 0 0 0 11.443 2.024c1.637.079 3.277.004 4.9-.222a33.8 33.8 0 0 0 6.419-1.6l5.444-1.98c1.344-.466 2.7-.894 4.092-1.226.053-.018.113-.025.164-.04zm-5.171 14.021l-.1.739c-5.6.244-11.221.827-16.783.79a68.13 68.13 0 0 1-17.012-2.6c-2.977-.79-5.954-1.544-8.968-2.187-1.3-.273-2.637-.6-3.982-.835.022-.229.03-.465.044-.694.665.111 1.33.244 1.994.377a160.27 160.27 0 0 1 9.463 2.186c6.124 1.61 12.093 2.97 18.46 3.014 5.596.038 11.254-.546 16.884-.79zm-3.8 13.193l-.406.709a88.5 88.5 0 0 1-9.123-1.98c-4.787-1.264-9.6-1.049-14.479-1.47-4.644-.321-9.237-1.171-13.688-2.534-1.743-.569-3.419-1.337-5.163-1.906-.074-.229-.14-.473-.207-.738 1.13.318 2.26.709 3.413 1.152a55.94 55.94 0 0 0 14.951 3.221c4.706.443 9.478.126 14.087 1.241 3.571.857 7.043 1.75 10.615 2.305z" class="AK"/><path d="M434.108 149.829h-.051a.37.37 0 0 1-.316-.416c.019-.13 1.783-12.992 1.306-15.58s-3.954-9.774-3.99-9.846a.37.37 0 0 1 .665-.322c.144.3 3.555 7.34 4.051 10.035s-1.227 15.28-1.3 15.814a.37.37 0 0 1-.365.315zm31.1-.398a.37.37 0 0 1-.286-.6c.161-.279 1.047-3.159 1.829-5.7l2.232-7.046c1.315-3.813 7.162-8.186 7.41-8.37a.37.37 0 0 1 .517.076.37.37 0 0 1-.077.516c-.059.044-5.912 4.422-7.152 8.018-.592 1.717-1.459 4.536-2.225 7.022-1.377 4.478-1.777 5.723-1.964 5.951-.07.084-.174.133-.284.132zm-25.274 17.829c-.118 0-.23-.056-.3-.151a30.12 30.12 0 0 1-2.59-4.288c-.556-1.233-.979-2.522-1.262-3.845l-.047-.2c-.058-.194.049-.399.241-.462s.398.041.461.232c.012.036.033.128.065.266a18.25 18.25 0 0 0 1.213 3.7 29.94 29.94 0 0 0 2.516 4.162.37.37 0 0 1-.08.516c-.064.046-.141.071-.22.071zm1.848.124c-.151-.001-.286-.092-.343-.232l-2.041-5.087a.37.37 0 0 1 .205-.48.37.37 0 0 1 .48.205l2.041 5.087a.37.37 0 0 1-.342.507z" class="AZ"/><path d="M457.726 201.357h3.693v42.811h-3.693z" class="AO"/><g class="AI"><path d="M456.618 230.519h5.91v33.106h-5.91zm-135.904 2.197v54.756l4.176-1.855v-53.3z"/><path d="M320.714 287.472l-4.863-.443V233.81l6.433-2.8-.41 15.841c0 2.216-1.16 40.621-1.16 40.621z"/><path d="M316.774 183.428v54.756l10.886-4.551v-53.3z"/><path d="M316.774 238.183l-4.863-1.046v-52.619l6.433-2.8s2.339 12.312 2.339 14.528-3.909 41.937-3.909 41.937zm-24.839 57.315c.277.184 9.05 4.108 9.05 4.108l50.195-22.6-10.772-2.678z"/><path d="M291.936 295.502v2.859l8.464 4.3 50.78-23.247v-2.4l-36.314 11.4z"/></g><g class="AJ"><path d="M300.575 300.572l-8.1-4.144a.37.37 0 0 1 .337-.658l7.782 3.982 49.232-22.48a.37.37 0 0 1 .49.182.37.37 0 0 1-.183.49z"/><path d="M300.399 302.565a.37.37 0 0 1-.368-.37v-1.387a.37.37 0 1 1 .739 0v1.385a.37.37 0 0 1-.368.372zm17.434-13.007l-2.35-1.206v-1.323a.37.37 0 1 1 .739 0v.872l1.65.847 6.649-2.642v-2.934a.37.37 0 1 1 .739-.038.24.24 0 0 1 0 .038v3.436zm-1.058-51.44a.37.37 0 0 1-.367-.307.37.37 0 0 1 .244-.411l7.448-2.639a.371.371 0 0 1 .247.7l-7.449 2.639c-.04.013-.081.019-.123.018zm1.076 49.725a.37.37 0 0 1-.368-.369h0v-48.782a.37.37 0 1 1 .739 0v48.78a.37.37 0 0 1-.369.371z"/><path d="M316.88 237.48a.37.37 0 0 1-.37-.368h0v-50.884a.37.37 0 0 1 .539-.351.37.37 0 0 1 .2.313.24.24 0 0 1 0 .038v50.884a.37.37 0 0 1-.369.368z"/></g><g class="AI"><path d="M486.351 262.545v54.756l4.709-2.065v-53.3z"/><path d="M486.351 317.302l-4.863-.444v-53.222l6.433-2.8.123 15.63c0 2.216-1.693 40.836-1.693 40.836zm-22.808-96.13l-6.771-1.97v-6.55l10.588-3.065z"/><path d="M257.077 170.682v3.471l181.351 46.529 87.906-28.473v-3.985z"/></g><path d="M257.077 170.683l181.094 45.372 88.163-27.83-174.7-36.881z" class="AO"/><g class="AI"><path d="M463.544 209.683v11.489l44.322-14.707v-9.943z"/><path d="M482.408 213.258v54.756l11.419-4.761v-53.295z"/><path d="M482.408 268.011l-4.863-1.047v-52.621l6.433-2.8s2.339 12.312 2.339 14.528-3.909 41.94-3.909 41.94zm-27.144 59.515c.277.184 9.049 4.109 9.049 4.109l53.037-25.007-10.773-2.678z"/><path d="M455.264 327.526v2.862l8.465 4.294 53.622-25.653v-2.4l-36.843 11.615z"/></g><g class="AJ"><path d="M463.908 332.6l-8.1-4.146a.37.37 0 0 1-.169-.494.37.37 0 0 1 .494-.169l.011.006 7.779 3.98 52.072-24.883a.37.37 0 0 1 .492.174.37.37 0 0 1-.174.493h0z"/><path d="M463.728 334.59a.37.37 0 0 1-.369-.369v-1.386a.37.37 0 1 1 .74 0v1.388a.37.37 0 0 1-.371.367zm19.741-15.204l-2.35-1.206v-1.322a.37.37 0 0 1 .369-.369.37.37 0 0 1 .369.369v.871l1.651.848 7.183-2.852v-2.935a.37.37 0 1 1 .739 0v3.436zm-1.061-51.439a.37.37 0 0 1-.366-.306.37.37 0 0 1 .241-.411l7.983-2.85a.37.37 0 0 1 .248.7l-7.982 2.844c-.04.015-.082.023-.124.023zm1.08 49.725a.37.37 0 0 1-.368-.369h0v-48.782a.37.37 0 0 1 .369-.369.37.37 0 0 1 .369.369v48.782a.37.37 0 0 1-.368.37z"/><path d="M478.594 216.625a.37.37 0 0 1-.364-.31.37.37 0 0 1 .247-.409l14.374-4.792a.37.37 0 0 1 .467.233.37.37 0 0 1-.233.467h0l-14.375 4.791a.35.35 0 0 1-.116.02zm3.922 50.684a.37.37 0 0 1-.369-.369h0v-50.884a.37.37 0 1 1 .74 0v50.884a.37.37 0 0 1-.368.37zm-24.339-52.655a.37.37 0 0 1-.364-.312.37.37 0 0 1 .251-.408l47.933-15.481a.37.37 0 0 1 .438.245.37.37 0 0 1-.211.455l-47.933 15.481a.4.4 0 0 1-.114.02zm5.367 5.761a.37.37 0 0 1-.37-.37h0v-6.51a.37.37 0 1 1 .739 0v6.51a.37.37 0 0 1-.369.37z"/></g><path d="M368.372 165.872c.877-2.644 6.035-4.089 8.222-4.131 2.8-.053 7.846 1.4 6.554 3.977a3.39 3.39 0 0 1-1.268 1.234 15.44 15.44 0 0 1-6.82 2.81c-2.042.217-6.916-.257-6.814-3.2.009-.235.052-.467.126-.69z" class="AI"/><path d="M390.873 160.234l-4.155-5.228a43.08 43.08 0 0 0-3.466.042c-1.627.079-3.649.093-5.122.886-1.252.786-2.404 1.722-3.429 2.788q-1.179 1.094-2.272 2.276a6.58 6.58 0 0 0-1.664 2.382 1.89 1.89 0 0 0 .123 1.313 1.13 1.13 0 0 1 .148.577c-.065.315-.069.64-.012.957.131.389.462.677.865.753.518.076 1.047.007 1.528-.2a.93.93 0 0 0 1.072.759.91.91 0 0 0 .295-.1c1.126-.469 4.062-4.145 5.832-5.247a5.54 5.54 0 0 1 4.1-.367s.279 1.873-.335 2.475l-2.4 2.467c-1.127 1.059-1.271 1.893-.322 2.454s4.826-2.789 7.079-4.076 2.135-4.911 2.135-4.911z" class="AL"/><path d="M373.458 166.716a.37.37 0 0 1-.319-.555h0a35.46 35.46 0 0 1 2.5-3.75 18.26 18.26 0 0 1 3.826-2.9.37.37 0 0 1 .505.134.37.37 0 0 1-.134.505c-1.32.754-2.539 1.672-3.628 2.732a35.51 35.51 0 0 0-2.433 3.65c-.065.114-.186.184-.317.184zm-2.011-1.822a.37.37 0 0 1-.292-.6l3.507-4.262a19.41 19.41 0 0 1 3.128-2.5.37.37 0 0 1 .4.623 18.98 18.98 0 0 0-2.987 2.381c-1.1 1.18-3.44 4.181-3.464 4.211a.37.37 0 0 1-.292.147z" class="AT"/><path d="M417.008 159.832c-4.287 3.741-28.53 2.262-28.672 1.988l-3.244-6.236 2.323-.824 17.86-3.886c2.973-.367 8.125-2.209 10.133.468 1.379 1.839 3.767 4.416 1.518 6.379-.033.025 2.413.074.082 2.111z" class="AL"/><path d="M402.724 165.772l-21.943 6.482c-.245.073-.416.296-.423.552-.018.522.187 1.325 1.587 1.407 2.093.123 60.175 13.479 61.1 13.356s21.73-5.725 22.16-6.217a2.12 2.12 0 0 0 .366-1.215c.009-.184-.131-.341-.314-.353z" class="AI"/><g class="AJ"><path d="M443.008 186.361c-.027 0-.053-.003-.079-.009l-60.821-13.342a.37.37 0 0 1-.281-.44.37.37 0 0 1 .44-.281l60.734 13.323 20.9-5.548a.37.37 0 1 1 .214.708l-.025.007-20.982 5.57a.42.42 0 0 1-.1.012zm-116.321 6.022c-.031 0-.061-.004-.091-.011l-13.955-3.58a.37.37 0 0 1-.265-.449.37.37 0 0 1 .449-.265l13.955 3.58a.37.37 0 0 1 .277.404.37.37 0 0 1-.369.323z"/><path d="M395.489 176.379a.37.37 0 0 1-.369-.371c0-.044.008-.088.023-.129l3.233-8.687a.37.37 0 0 1 .475-.217.37.37 0 0 1 .217.475h0l-3.233 8.687a.37.37 0 0 1-.346.243zm3.486 1.246a.37.37 0 0 1-.346-.5h0l3.934-10.65a.37.37 0 0 1 .475-.218.37.37 0 0 1 .218.475l-3.933 10.65c-.054.146-.192.243-.348.244z"/></g><path d="M447.721 170.651s-9.083-.6-11.349.257c-1.267.479-4.224 3.8-4.943 4.861-.573.846-.956 1.83.4 2.046a2.5 2.5 0 0 0 1.659-.551 4.72 4.72 0 0 0-1.3 2.649c-.023.367.144.721.442.937s.686.264 1.027.128a1.98 1.98 0 0 0 .265-.1c1.13 1.542 5.319-2.753 5.319-2.753s-.894 1.541-.76 1.9c.137.497.651.789 1.148.652.049-.014.097-.031.143-.052a5.14 5.14 0 0 0 1.206-1.364 4.9 4.9 0 0 1 2.253-1.6c0 0 3.529.464 4.165.433a4.84 4.84 0 0 0 4.32-2.616c1.916-4.213-3.995-4.827-3.995-4.827z" class="AL"/><path d="M433.792 177.166a.37.37 0 0 1-.3-.589 32.4 32.4 0 0 1 3.089-3.668 24.85 24.85 0 0 1 3.182-1.913.37.37 0 0 1 .374.639l-.038.019a24.7 24.7 0 0 0-3.051 1.826 32.93 32.93 0 0 0-2.964 3.536.37.37 0 0 1-.292.15zm.316 3.151a.37.37 0 0 1-.308-.573c.996-1.506 2.107-2.933 3.324-4.267 1.368-1.2 2.932-2.157 4.624-2.828a.37.37 0 0 1 .525.375.37.37 0 0 1-.225.299l-.028.011a15.5 15.5 0 0 0-4.369 2.659c-1.183 1.301-2.265 2.691-3.236 4.157-.068.104-.183.167-.307.167zm5.631-2.481a.37.37 0 0 1-.3-.586c.586-.805 1.303-1.506 2.122-2.072a8.7 8.7 0 0 1 2.192-.681.37.37 0 0 1 .431.295.37.37 0 0 1-.296.431h0a8.14 8.14 0 0 0-1.949.589 8.29 8.29 0 0 0-1.9 1.871.37.37 0 0 1-.3.153z" class="AT"/><g class="AL"><path d="M445.016 171.899s14.922-6.9 18.385-8.167c2.946-1.079 6.415-3.307 9.1-1.056 2.25 1.886 2.079 5.195.066 7.461a9.59 9.59 0 0 1-3.981 2.636c-6.482 2.311-12.679 2.417-19.286 4.339z"/><path d="M463.544 164.389l4.882-12.48 12.189 4.266-6.743 11.677z"/></g><path d="M494.938 170.816a.37.37 0 0 1-.224-.076c-.178-.135-1.069-.851-1.069-1.612 0-.548.945-7.825 2.218-8.956a2.39 2.39 0 0 1 2.773-.287.37.37 0 0 1 .129.507.37.37 0 0 1-.507.129 1.66 1.66 0 0 0-1.9.2c-.938.834-1.969 7.675-1.969 8.4 0 .295.464.786.778 1.024a.37.37 0 0 1-.224.663zm-17.591 2.53c-.046 0-.091-.008-.134-.025a.37.37 0 0 1-.21-.477 9.23 9.23 0 0 1 5.963-4.976c3.471-1.042 9.8.17 10.073.222a.37.37 0 0 1 .292.432h0c-.04.199-.233.329-.433.292-.064-.012-6.419-1.232-9.719-.24a8.65 8.65 0 0 0-5.487 4.536.37.37 0 0 1-.345.236z" class="Aa"/><path d="M459.701 262.759c-1.333-.101-2.519-.885-3.133-2.072a.37.37 0 0 1 .334-.56.37.37 0 0 1 .317.21c.045.084 1.129 2.044 2.981 1.626s2.111-3.086 2.113-3.114c.026-.199.2-.345.4-.336.098.008.189.054.252.129s.094.173.085.271h0c-.011.131-.3 3.23-2.686 3.772-.218.049-.44.074-.663.074z" class="AJ"/><path d="M306.915 156.105v14.617l9.6 2.692 9.165-2.521v-14.761l-10.643-1.992z" class="AK"/><path d="M310.472 157.605l-1.581-.332-.17-.79-1.374-6.39a.74.74 0 0 1 .58-.868.74.74 0 0 1 .868.58l1.507 7.018z" class="AI"/><path d="M323.661 146.849l-.539 9.773-.038.76-1.5.318.044-.76.561-10.194c.016-.407.358-.724.765-.708s.724.358.708.765a.32.32 0 0 1 0 .043z" class="AS"/><path d="M320.193 150.919l-.354 6.4-.044.761-1.5.325.044-.761.377-6.84a.74.74 0 0 1 .792-.659.74.74 0 0 1 .685.77z" class="AJ"/><g class="AQ"><path d="M325.208 156.925l-2.12.458-1.5.318-1.8.384-1.5.325-2 .428-5.827-1.234-1.582-.332-1.639-.348c-.196-.039-.323-.229-.284-.425v-.01c.043-.198.238-.323.436-.281l1.315.273 1.581.34 6 1.263 2.039-.436 1.5-.325 1.8-.384 1.492-.318 1.935-.414c.196-.044.391.079.435.275v.006a.36.36 0 0 1-.269.432z"/><path d="M316.563 173.003c-.201 0-.365-.161-.368-.362l-.265-13.49a.37.37 0 0 1 .362-.377.38.38 0 0 1 .377.362l.265 13.491a.37.37 0 0 1-.362.376h-.009z"/></g><g class="AK"><path d="M334.023 176.099c.549 0 12.842 11.328 13.066 11.649s30.9-7.482 30.9-7.482l-14.261-10.905a1.94 1.94 0 0 0-1.658-.339z"/><path d="M334.023 176.1s-.281.5.556 1.438 11.133 11.294 12.485 11.294 29.358-6.907 30.03-7.325c.431-.3.748-.737.9-1.239z"/></g><path d="M347.323 187.614c-.095.001-.186-.035-.255-.1l-11.05-10.588a.37.37 0 0 1-.01-.523.36.36 0 0 1 .179-.1l23.992-5.836a.37.37 0 0 1 .318.07l12.711 10.154a.37.37 0 0 1-.143.647l-25.649 6.268a.38.38 0 0 1-.093.008zm-10.307-10.758l10.416 9.98 24.722-6.041-11.978-9.575zm30.616-1.664c-.478-.041-.913-.292-1.187-.685-.514-.65-.564-1.408-.115-1.763s1.175-.135 1.689.515.564 1.408.116 1.763a.8.8 0 0 1-.503.17zm-.8-1.879c-.015-.001-.03.002-.043.01-.052.041-.051.364.235.726s.6.436.652.4.051-.363-.235-.725a.95.95 0 0 0-.609-.407z" class="AQ"/><path d="M338.808 169.027a11.25 11.25 0 0 1 1.966-1l21.746-2.88a.74.74 0 0 1 .807.65.74.74 0 0 1-.637.818l-21.746 2.88c-.126.017-2.136-.468-2.136-.468z" class="AK"/><g class="AM"><path d="M302.733 162.022l-.007.325v.414c0 3.841-.015 6.471-2.94 8.635h-14.6c-3.028-2.239-3.324-5.385-3.324-9.448 0-.48-.015-.968-.03-1.448a39.59 39.59 0 0 0-.015-.982v-.008c-.037-2.342.074-4.594 1.529-6.212h18.283c1.886 2.105 1.149 5.644 1.104 8.724z"/><path d="M301.625 153.363c0 .9-4.093 1.631-9.142 1.631s-9.142-.731-9.142-1.631 4.093-1.631 9.142-1.631 9.142.731 9.142 1.631z"/><ellipse cx="292.484" cy="171.4" rx="7.298" ry="1.631"/></g><path d="M299.785 153.361c0 .45-1.743.842-4.255 1.02l-.82.051-.717.03-.739.015-.569.007h-.2c-.192 0-.377 0-.562-.007h-.147c-.192 0-.385-.008-.569-.008l-.28-.007-.917-.044c-2.815-.156-4.823-.569-4.823-1.056 0-.348 1.041-.665 2.674-.872l.982-.1 1.005-.074.812-.037.761-.022.754-.015h.31l.916.007.739.022 1.507.081.8.067c2.009.196 3.338.543 3.338.942z" class="AX"/><path d="M292.401 172.478c-2.216-.042-4.421-.314-6.581-.811a.37.37 0 0 1 .173-.719 30.16 30.16 0 0 0 7.431.76 32.62 32.62 0 0 0 5.228-.667.37.37 0 0 1 .448.27.37.37 0 0 1-.27.447 32.54 32.54 0 0 1-5.36.687l-1.069.033zm-1.368-15.678c-5.272 0-7.764-1.421-7.878-1.487a.37.37 0 0 1 .373-.638h0c.029.017 3 1.691 9.251 1.335 6.294-.36 8.679-1.346 8.7-1.356a.37.37 0 0 1 .485.194.37.37 0 0 1-.194.485c-.1.043-2.5 1.046-8.951 1.414l-1.786.053z" class="AZ"/><path d="M284.251 162.148a11.64 11.64 0 0 1-2.423-1.648l-.014-.982a12.94 12.94 0 0 0 2.814 1.987c.428.207.051.842-.377.643zm4.769-.138c-.968-.335-1.854-.87-2.6-1.572-.348-.325-.871.2-.522.522.841.788 1.839 1.388 2.928 1.762.448.156.642-.558.194-.712zm4.617.643a5.28 5.28 0 0 1-2.892-1.326c-.352-.318-.875.2-.522.523.893.821 2.015 1.35 3.217 1.516.468.065.668-.649.197-.713zm4.028-.205c-1.237-.266-2.429-.707-3.541-1.31a.37.37 0 0 0-.505.133.37.37 0 0 0 .133.505 14 14 0 0 0 3.716 1.385.37.37 0 1 0 .2-.713zm5.066-.425l-.007.325v.414a14.33 14.33 0 0 1-4.211-1.219c-.429-.2-.052-.835.377-.635a13.04 13.04 0 0 0 3.841 1.115z" class="AK"/><path d="M305.76 145.962c-.543-1.121-2.154-.568-3.141-.418-.981.134-1.935.418-2.829.842.078-.691.194-1.378.347-2.056.358-1.514 1.684-3.652 1.822-5.493.73-1.926 1.7-3.888-.242-5.579a3.34 3.34 0 0 0-4.714.3 3.38 3.38 0 0 0-.467.687c-.622 1.272-.1 2.751-.495 4.078a13.81 13.81 0 0 0-.529 3.687c-.1 2.5-2.227 3.545-3.442 5.3l-.373-1.523c-.059-.226.688-1.511.752-1.891a10.58 10.58 0 0 0 .067-2.036 21.46 21.46 0 0 1 .473-4.42 2.15 2.15 0 0 1 .111-.447c.186-.461.6-.792.821-1.241.257-.552.404-1.149.432-1.757 1.026-1.758 1.085-5.263-1.285-5.752a3.4 3.4 0 0 0-3.108 1.487c-.853 1.342-.515 3.178-.4 4.695-.268 1.036-.694 2.024-1.262 2.931-.195-.586-.527-1.116-.968-1.548-.752-.736-1.978-1.387-3.021-.855s-1.148 1.816-1.053 2.842c.213 1.992.721 3.942 1.506 5.786.332.787.328 1.675-.012 2.459-1.9-1.75-4.608-3.4-5.773-.89-.7 1.513.5 2.545 1.64 3.292 1.724 1.134 3.651 1.777 5.379 2.874.643.722 1.338 1.395 2.081 2.014a4.62 4.62 0 0 0 1.067.313c1.485.483 3.068.58 4.6.28a3.85 3.85 0 0 1 .937-.124c.279.014.549.1.826.13.688.072 1.347-.52 1.891-.867a3.59 3.59 0 0 0 1.415-1.732c.061-.15.1-.3.156-.449 1.833-.57 3.939-.671 5.5-1.716.961-.645 1.862-2.024 1.291-3.203z" fill="#58867b"/><path d="M290.715 145.391c-.86-.318-1.282-.423-1.489-1.414a3.85 3.85 0 0 0-.282-.927c-.447-.637-.721-1.379-.795-2.153a13.65 13.65 0 0 1 .361-2.354c.085-.464-.626-.664-.711-.2a10.85 10.85 0 0 0-.374 3 6.24 6.24 0 0 0 .837 2.039c.273.6.175 1.42.579 1.96.427.569 1.057.523 1.678.752.446.178.639-.54.196-.703zm-4.349 4.505a6.89 6.89 0 0 1-1.262-2.95c-.043-.469-.782-.474-.738 0a7.6 7.6 0 0 0 1.363 3.323c.27.386.911.018.637-.373zm5.223-2.024c-.91 1.55-1.175 3.396-.737 5.139.113.461.825.266.712-.2-.389-1.551-.151-3.193.663-4.57a.37.37 0 0 0-.638-.369zm7.402-.962c-.809 1.139-1.055 2.585-.667 3.928.173.437.887.246.712-.2-.332-1.151-.113-2.391.593-3.359.229-.413-.408-.786-.638-.369zm-.604-12.307l-.569 1.842c-.14.456.572.65.712.2q.285-.921.569-1.842a.37.37 0 0 0-.712-.2zm1.193 2.882l-.394 1.3a.37.37 0 1 0 .712.2h0q.2-.653.394-1.3a.37.37 0 0 0-.712-.2zm-2.088 4.803l-.28 1.115a.37.37 0 0 0 .712.2q.139-.558.281-1.115a.37.37 0 0 0-.713-.2zm-3.255 6.838l-.366 1.047c-.157.45.557.644.712.2q.184-.523.366-1.048c.159-.453-.556-.648-.712-.199zm-2.272-18.468a3.83 3.83 0 0 1-.333.957c-.217.422.421.8.638.373a4.53 4.53 0 0 0 .408-1.133c.098-.465-.614-.663-.713-.197zm-.078 3.178a4.74 4.74 0 0 0-.354.945.37.37 0 0 0 .712.2 3.87 3.87 0 0 1 .28-.769c.213-.428-.427-.803-.638-.376zm-6.167 2.978c-.079-.468-.791-.269-.712.2q.1.614.207 1.227c.08.468.792.269.713-.2q-.105-.614-.208-1.227zm2.269 10.958c-.111-.454-.262-.897-.45-1.325-.187-.435-.824-.06-.637.373a7.02 7.02 0 0 1 .375 1.149c.111.458.823.267.712-.197zm1.226-.179c-.157-.446-.87-.254-.712.2.082.224.127.461.131.7a.37.37 0 0 0 .739 0 2.84 2.84 0 0 0-.158-.9zm-7.219-1.278l-.689-.664c-.343-.33-.865.192-.523.522l.689.665c.343.334.866-.192.523-.523zm21.212.372a4.98 4.98 0 0 0-.623.868.37.37 0 0 0 .132.505.37.37 0 0 0 .505-.132 4.15 4.15 0 0 1 .508-.719c.312-.355-.213-.879-.522-.522z" fill="#456664"/><path d="M323.1 161.665c0 .842-.345 1.524-.771 1.524s-.771-.682-.771-1.524.345-1.523.771-1.523.771.682.771 1.523zm10.808 7.493c0 .842-.345 1.523-.771 1.523s-.771-.682-.771-1.523.345-1.523.771-1.523.771.682.771 1.523zm50.006 6.851c0 .842-.345 1.523-.771 1.523s-.771-.682-.771-1.523.345-1.523.771-1.523.771.686.771 1.523zm11.576 6.939c0 .841-.345 1.523-.772 1.523s-.771-.682-.771-1.523.346-1.523.771-1.523.772.682.772 1.523z" class="AJ"/><path d="M412.019 159.356l.578-.286-6.053-44.542-67.379-12.115-.61.5z" class="AI"/><g class="AJ"><path d="M337.308 103.86l1.242-.95 67.292 12.247 6.173 44.2-1.754.786z"/><path d="M337.308 103.86l66.622 13.191 6.332 43.091-61.2-13.249z"/></g><g class="AI"><path d="M312.508 186.564l-3.373-1.506 11.122-24.908c.2-.447.569-.797 1.026-.973s.966-.161 1.414.039a1.87 1.87 0 0 1 .413.255l9.194 7.487 10.821-30.427 3.479 1.237-11.7 32.893c-.2.566-.664.999-1.242 1.161s-1.199.032-1.664-.348l-9.354-7.617zm60.777 14.577l-3.373-1.506 11.122-24.908a1.85 1.85 0 0 1 2.442-.932 1.81 1.81 0 0 1 .265.146l10.066 6.667 10.036-27.6 3.471 1.263-10.837 29.8a1.85 1.85 0 0 1-2.756.909l-10.2-6.758z"/><path d="M305.462 183.699v-3.092l8.49-1.813 10.44 2.452v2.452l-8.449 2.3z"/></g><path d="M313.208 182.023a1.81 1.81 0 0 1-1.682-.779c-.375-.549-.417-1.26-.111-1.85a.37.37 0 0 1 .656.34c-.127.266-.149.571-.06.852a1.24 1.24 0 0 0 .806.63c1.366.474 2.491-1.79 2.5-1.813a.37.37 0 0 1 .494-.17.37.37 0 0 1 .17.494h0c-.048.103-1.142 2.296-2.773 2.296zm1.846 1.801l-9.168-2.58a.37.37 0 0 1 .2-.711l8.99 2.53 8.066-1.772a.37.37 0 0 1 .431.472.37.37 0 0 1-.272.249zm-9.593 2.358a.37.37 0 0 1-.369-.369v-2.494a.37.37 0 0 1 .739 0v2.494a.37.37 0 0 1-.369.369zm9.819 2.431a.37.37 0 0 1-.369-.369v-3.878a.37.37 0 1 1 .74 0v3.878a.37.37 0 0 1-.37.369z" class="AJ"/><path d="M365.981 198.108v-2.952l8.49-1.953 10.439 2.452v2.452l-9.464 2.94z" class="AI"/><path d="M375.576 198.231l-9.167-2.437a.37.37 0 0 1 .19-.715l8.994 2.392 8.068-1.772a.37.37 0 1 1 .159.722h0zm-9.595 3.206a.37.37 0 0 1-.368-.369v-2.496a.37.37 0 1 1 .739 0v2.493a.37.37 0 0 1-.369.369zm9.819 2.635a.37.37 0 0 1-.37-.369v-4.683a.37.37 0 1 1 .739 0v4.683a.37.37 0 0 1-.369.369zm-1.782-7.705c-.661.069-1.307-.23-1.681-.779a1.81 1.81 0 0 1-.111-1.85.37.37 0 0 1 .498-.158.37.37 0 0 1 .158.498h0c-.127.266-.148.571-.059.852a1.23 1.23 0 0 0 .806.63c1.364.473 2.491-1.79 2.5-1.813a.37.37 0 0 1 .494-.17.37.37 0 0 1 .17.494h0c-.048.101-1.14 2.296-2.775 2.296z" class="AJ"/><g class="AI"><path d="M344.053 142.119l63.034 12.742-1.657-13.055-63.583-11.758z"/><path d="M341.847 130.048l2.216-1.393 63.407 11.514 1.754 13.138-2.133 1.555-25.643-12.051c-1.662-.37-39.601-12.763-39.601-12.763z"/></g><g class="AJ"><path d="M405.135 142.6l-.2-.037-62.344-11.8a.37.37 0 0 1 .137-.726l62.146 11.761 1.4-1.462a.37.37 0 0 1 .522-.011.37.37 0 0 1 .011.522zm-1.201 11.099a.37.37 0 0 1-.369-.371c0-.044.008-.088.023-.129l3.488-9.337a.37.37 0 0 1 .475-.217.37.37 0 0 1 .217.475l-3.488 9.338a.37.37 0 0 1-.346.241z"/><path d="M407.421 154.011c-.042 0-.084-.007-.124-.021a.37.37 0 0 1-.224-.471h0l.985-2.766a.371.371 0 1 1 .7.248l-.986 2.765a.37.37 0 0 1-.351.245zm-1.744-6.182a.37.37 0 0 1-.363-.307l-.816-4.925a.37.37 0 0 1 .355-.382.37.37 0 0 1 .383.355h0l.807 4.828a.37.37 0 0 1-.3.426.48.48 0 0 1-.066.005zm2.145 1.282c.036-.7-.114-1.27-.334-1.281s-.429.544-.466 1.24.114 1.269.335 1.281.428-.544.465-1.24zm-63.533-6.097a.37.37 0 0 1-.36-.291l-.862-3.939a.37.37 0 0 1 .282-.439.37.37 0 0 1 .439.282l.861 3.939a.37.37 0 0 1-.279.439h0a.32.32 0 0 1-.081.01zm55.719 7.416l-49.7-9.9-1.095-5.258 50.108 9.8zm-49.073-10.525l48.21 9.6-.485-3.811-48.493-9.479z"/></g><g class="AI"><path d="M407.086 139.072a.37.37 0 0 1-.364-.313l-3.483-22.547 2.187-.977a.37.37 0 0 1 .3.675l-1.674.746 3.4 21.991a.37.37 0 0 1-.308.421h0c-.019.002-.039.004-.058.004z"/><path d="M402.539 116.682a.41.41 0 0 1-.069-.006l-64.7-12.189a.37.37 0 0 1-.286-.43.37.37 0 0 1 .423-.295l64.7 12.189a.37.37 0 0 1 .301.397.37.37 0 0 1-.369.335zm7.608 43.043a.37.37 0 0 1-.363-.3l-.928-5.216a.37.37 0 0 1 .298-.428.37.37 0 0 1 .428.298l.929 5.216a.37.37 0 0 1-.3.428h0a.47.47 0 0 1-.065.002zm-8.194-32.214a.37.37 0 0 1-.365-.316l-1.2-8.18a.37.37 0 1 1 .725-.15.32.32 0 0 1 .006.043l1.2 8.179a.37.37 0 0 1-.312.419.33.33 0 0 1-.054.005zm-1.778-.191a.37.37 0 0 1-.365-.316l-1.2-8.18a.37.37 0 0 1 .732-.107l1.2 8.18a.37.37 0 0 1-.313.419l-.054.004zm-1.779-.377a.37.37 0 0 1-.365-.316l-1.2-8.179a.37.37 0 0 1 .732-.108l1.2 8.18a.37.37 0 0 1-.311.419h0a.35.35 0 0 1-.056.004zm-1.778-.431a.37.37 0 0 1-.365-.316l-1.2-8.179a.37.37 0 0 1 .732-.108l1.2 8.18a.37.37 0 0 1-.311.419h0a.49.49 0 0 1-.056.004zm-1.776-.309a.37.37 0 0 1-.365-.316l-1.2-8.18a.37.37 0 0 1 .732-.107l1.2 8.18a.37.37 0 0 1-.311.419h0a.35.35 0 0 1-.056.004zm-13.85 9.914a.37.37 0 0 1-.364-.306l-1.187-6.842-18.665-3.692 1.3 7.4a.37.37 0 0 1-.425.246.37.37 0 0 1-.293-.394c-.029-.455-.876-4.917-1.411-7.654a.37.37 0 0 1 .291-.433c.047-.01.096-.01.143 0l19.453 3.847a.37.37 0 0 1 .292.3l1.231 7.092a.37.37 0 0 1-.3.428h0a.47.47 0 0 1-.065.008z"/><path d="M346.625 119.533a.38.38 0 0 1-.1-.013l-2.767-.769a.37.37 0 0 1-.26-.266l-2.693-10.76a.37.37 0 0 1 .27-.448.36.36 0 0 1 .17 0l2.791.634a.37.37 0 0 1 .277.273l2.669 10.9a.37.37 0 0 1-.042.279c-.05.084-.133.144-.228.167a.38.38 0 0 1-.089.011zm-2.461-1.436l1.953.543-2.465-10.062-1.983-.45zm29.161 9.655a.37.37 0 0 1-.364-.309l-.287-1.733-5.217-1.022.234 1.394a.37.37 0 0 1-.3.426c-.2.032-.388-.101-.426-.3l-.323-1.92a.37.37 0 0 1 .106-.327c.087-.085.21-.121.329-.097l5.991 1.174a.37.37 0 0 1 .294.3l.33 1.985a.37.37 0 0 1-.3.425.5.5 0 0 1-.067.004z"/></g><path d="M717.592 372.006l2.012 13 3.949 5.264 4.889-6.371s.182-12.317-.179-12.123-10.671.23-10.671.23z" class="AN"/><path d="M728.441 383.897c-2.924.526-5.874.896-8.838 1.107-2.452 0-7.221 2.53-9.027 3.434s-8.226 1.98-9.194 3.022-.129 3.817 0 4.333 22.064 1.613 25.226.968 3.484-1.807 3.678-2.581-1.845-10.283-1.845-10.283z" class="AX"/><path d="M721.084 395.879c-1.928 0-4.044-.049-6.229-.1l-.418-.01c-4.074-.1-12.61-.72-12.7-.727a.37.37 0 0 1-.284-.577.37.37 0 0 1 .337-.159h0c.085.006 8.6.63 12.658.725l.418.01c3.857.09 7.5.177 10.242-.01a6.5 6.5 0 0 0 3.835-1.254.37.37 0 0 1 .511.534c-1.233.947-2.745 1.459-4.3 1.457-1.2.085-2.579.111-4.07.111zm-8.664-6.014a3.52 3.52 0 0 1-2.46-.62.37.37 0 1 1 .515-.53c.03.025.793.637 3.248.321 2.635-.337 5.685-2.829 5.716-2.854a.37.37 0 0 1 .52.05.37.37 0 0 1-.05.52c-.132.108-3.245 2.653-6.093 3.017a11.24 11.24 0 0 1-1.396.096z" fill="#522828"/><path d="M798.599 314.2c1.171-.242 3.774 1.283 4.8 1.711 3.802 1.572 7.392 3.613 10.687 6.076 6.713 5.071 11.106 12.665 13.165 20.742 3.724 14.6.708 30.1-11.505 39.652a59.25 59.25 0 0 1-39.383 12.3c-13.5-.658-27.657-3.093-37.744-12.943a31.53 31.53 0 0 1-8.854-16.329c-1.632-8.035-2.211-17.344.708-25.167 4.835-12.965 68.097-26.036 68.126-26.042z" class="AJ"/><g class="AI"><path d="M701.097 296.141v4.27l79.425 24.887 4.063-1.293v-5.213l-74.424-22.568zm8.016-8.501l-10.1-3.617v-72.268h10.588z"/><path d="M709.085 287.117l3.72-1.092v-73.053h-7.51z"/><path d="M706.467 301.072l-5.371-2.116v-72.27l5.863-1.5z"/><path d="M706.466 301.072l3.693-2.031v-72.629h-7.51z"/></g><g class="AJ"><path d="M708.014 287.748l-6.7-2.344a.37.37 0 0 1-.131-.64.37.37 0 0 1 .375-.06l6.5 2.273 1.465-.345a.37.37 0 0 1 .169.72zm.36-2.324a.37.37 0 0 1-.369-.369v-70.529a.37.37 0 0 1 .369-.369.37.37 0 0 1 .369.369h0v70.53a.37.37 0 0 1-.108.261c-.069.069-.163.108-.261.107zm-1.966 11.82a.37.37 0 0 1-.369-.369v-9.234a.37.37 0 0 1 .369-.369.37.37 0 0 1 .369.369v9.229a.37.37 0 0 1-.364.374z"/><path d="M706.959 297.844a.37.37 0 0 1-.372-.333.37.37 0 0 1 .301-.399c.2-.055 1.828-.612 2.828-.956a.37.37 0 1 1 .241.7 26.35 26.35 0 0 1-2.998.988zm73.285 27.286a.37.37 0 0 1-.369-.37v-4.948l3.97-1.037a.37.37 0 1 1 .187.715l-3.417.893v4.378a.37.37 0 0 1-.371.369z"/><path d="M779.137 320.545c-.036 0-.072-.005-.106-.015l-72.486-21.777a.37.37 0 0 1 .212-.708l72.485 21.777a.37.37 0 0 1 .261.408.37.37 0 0 1-.367.315z"/></g><g class="AI"><path d="M535.328 367.887v4.27l79.426 26.365 4.063-1.293v-5.213l-74.424-24.044zm8.017-8.498l-10.1-3.617v-72.269h10.588z"/><path d="M543.319 358.865l3.72-1.092v-73.051h-7.51z"/><path d="M540.698 372.821l-5.371-2.116v-72.266l5.863-1.5z"/><path d="M540.698 372.821l3.694-2.031v-72.634h-7.51z"/></g><g class="AJ"><path d="M542.248 359.496l-6.7-2.344a.37.37 0 1 1 .243-.7l6.5 2.273 1.465-.345a.37.37 0 0 1 .444.275.37.37 0 0 1-.275.444zm.36-2.324a.37.37 0 0 1-.37-.368h0v-70.532a.37.37 0 1 1 .739 0v70.53a.37.37 0 0 1-.369.37zm-1.972 11.82a.37.37 0 0 1-.369-.369v-9.234a.37.37 0 1 1 .739-.038.24.24 0 0 1 0 .038v9.234a.37.37 0 0 1-.369.369z"/><path d="M541.19 369.591a.37.37 0 0 1-.07-.732c.2-.055 1.829-.612 2.828-.955a.37.37 0 1 1 .241.7h0a26.3 26.3 0 0 1-2.999.987zm73.287 28.761a.37.37 0 0 1-.37-.368h0v-4.949l3.97-1.037a.37.37 0 0 1 .45.265.37.37 0 0 1-.264.45h0l-3.417.894v4.378a.37.37 0 0 1-.369.367z"/><path d="M613.369 393.772c-.038 0-.077-.006-.113-.018L540.772 370.5a.37.37 0 0 1-.271-.439.37.37 0 0 1 .432-.281c.022.004.043.011.063.02l72.485 23.255a.37.37 0 0 1 .254.409.37.37 0 0 1-.367.312z"/></g><path d="M533.25 278.972v4.536l110.558 24.127 165.53-72.194v-4.869z" class="AI"/><path d="M533.25 278.967l167.746-71.569 108.343 23.174-165.776 72.1z" class="AO"/><path d="M545.944 286.643a.35.35 0 0 1-.079-.009l-11.678-2.548a.37.37 0 0 1-.282-.44.37.37 0 0 1 .439-.282l11.678 2.549a.37.37 0 0 1 .291.4.37.37 0 0 1-.369.33z" class="AJ"/><g class="AI"><path d="M631.69 228.56l38.82 9.764 62.233-26.569-38.6-9.443z"/><path d="M631.69 228.56v-3.37l62.889-26.448 38.166 9.726v3.287z"/><path d="M631.69 228.561v18.078s29.647 7.757 29.771 6.156-25.362-8.864-25.362-8.864l.165-16.126-2.873-.741zm61.189-25.509v18.074s29.648 7.756 29.771 6.156-25.362-8.865-25.362-8.865l.165-16.126-2.873-.741z"/></g><g class="AJ"><path d="M635.298 229.767c-.037 0-.074-.006-.11-.017l-2.708-.838a.37.37 0 0 1-.244-.462.37.37 0 0 1 .462-.244l2.708.838a.37.37 0 0 1 .257.408.37.37 0 0 1-.365.314zm35.195 5.573l-37.193-9.31a.37.37 0 0 1-.198-.614.37.37 0 0 1 .359-.106h.017l36.954 9.25 61.407-25.945a.37.37 0 0 1 .526.37.37.37 0 0 1-.219.301l-.021.009zm-37.658 11.112a.37.37 0 0 1-.163-.7l2.908-1.431a.37.37 0 0 1 .495.168.37.37 0 0 1-.168.495h0l-2.909 1.428a.38.38 0 0 1-.162.04zm30.715-26.342l13.943 3.694 28.908-11.644-16.159-3.74z"/><path d="M706.408 212.16v-2.522l-15.582-3.632-27.27 11.7v2.408l17.544-1.793z"/></g><g class="AI"><path d="M677.184 221.767l-13.319-3.307a.37.37 0 0 1-.27-.447.37.37 0 0 1 .447-.27l13.09 3.249 28.375-11.267a.37.37 0 0 1 .273.687z"/><path d="M677.297 223.688a.37.37 0 0 1-.37-.368h0v-1.362a.37.37 0 0 1 .56-.336.37.37 0 0 1 .179.336v1.362a.37.37 0 0 1-.369.368z"/></g><g class="AJ"><path d="M678.359 216.112v-19.234l10.157-5.079v20.338z"/><path d="M633.932 171.327l11.327 49.247 77.525-33.245L714 137.773z"/><path d="M713.999 137.772h-4.391l-78.706 32.775 11.265 48.2 3.1 1.826z"/></g><path d="M635.149 171.54l10.756 46.845 75.063-32.149-8.283-47.146z" class="AK"/><g class="AI"><path d="M644.84 219.918a.37.37 0 0 1-.36-.288l-10.856-47.992-2.252-.5a.37.37 0 0 1-.193-.61.37.37 0 0 1 .352-.111h0l2.481.548c.14.03.25.139.281.279l10.907 48.222a.37.37 0 0 1-.276.441h0a.34.34 0 0 1-.084.011zm34.055-13.399a.37.37 0 0 1-.146-.708l8.747-3.751a.37.37 0 0 1 .485.194.37.37 0 0 1-.194.485l-8.748 3.751a.37.37 0 0 1-.144.029zm.668 9.736c-.057 0-.114-.013-.165-.039l-1.2-.6a.37.37 0 0 1-.2-.33v-3.531a.37.37 0 1 1 .739-.038.24.24 0 0 1 0 .038v3.3l.844.422 8.574-3.584v-4.5a.37.37 0 0 1 .739 0v4.744a.37.37 0 0 1-.228.341l-8.956 3.744a.37.37 0 0 1-.147.033z"/><path d="M679.859 215.772a.37.37 0 0 1-.369-.369h0v-8.93a.37.37 0 0 1 .56-.336.37.37 0 0 1 .179.336v8.933a.37.37 0 0 1-.37.366z"/></g><g class="AR"><path d="M636.808 172.148l2.678 10.342 73.962-31.241-1.872-10.2zm3.252 13.398h0a1.25 1.25 0 0 0 1.7.854l9.407-3.963a1.25 1.25 0 0 0 .732-1.434l-.023-.1a1.25 1.25 0 0 0-.654-.834c-.331-.167-.719-.178-1.059-.03l-9.384 4.064a1.25 1.25 0 0 0-.719 1.443zm1.106 3.763h0a1.25 1.25 0 0 0 1.7.854l9.407-3.963a1.25 1.25 0 0 0 .732-1.434l-.024-.1a1.25 1.25 0 0 0-.653-.835 1.24 1.24 0 0 0-1.06-.029l-9.384 4.064a1.25 1.25 0 0 0-.718 1.443zm.978 3.763l2.14 9.687a.68.68 0 0 0 .812.518.7.7 0 0 0 .117-.037l10.453-4.4a.68.68 0 0 0 .4-.772l-2.14-9.811a.68.68 0 0 0-.81-.521.67.67 0 0 0-.126.041l-10.452 4.527c-.297.13-.462.451-.394.768zm4.72 21.269h0a1.25 1.25 0 0 0 1.7.854l9.408-3.963a1.25 1.25 0 0 0 .732-1.434l-.024-.1a1.25 1.25 0 0 0-.653-.835 1.24 1.24 0 0 0-1.06-.029l-9.384 4.064a1.25 1.25 0 0 0-.719 1.443zm13.858-3.042c-.171-.001-.32-.118-.36-.285l-7.684-32.906a.37.37 0 0 1 .72-.168l7.684 32.907a.37.37 0 0 1-.276.443h0a.4.4 0 0 1-.084.009zm5.309-4.627l-2.649-10.98 8.313-3.287 2.381 10.8zm25.546-11.171l-.926-3.67 8.239-3.258.731 3.464zm-13.033 5.716l-3.659-15.472 8.483-3.355 3.22 15.363zm26.219-11.327l-5.016-22.82 8.483-3.355 4.578 22.712z"/><path d="M660.722 209.33a.37.37 0 0 1-.146-.709l58.542-25.209a.37.37 0 0 1 .513.382.37.37 0 0 1-.221.296l-58.542 25.208c-.046.02-.096.031-.146.032zm21.56-32.751a.38.38 0 0 1-.162-.037c-.094-.046-.165-.13-.193-.231l-1.45-5.1a.37.37 0 0 1 .217-.444l12.486-5.007a.37.37 0 0 1 .481.2.34.34 0 0 1 .019.062l1.135 5.185a.37.37 0 0 1-.223.421l-12.172 4.92a.38.38 0 0 1-.138.031zm-1-5.247l1.247 4.382 11.5-4.648-.976-4.454z"/></g><path d="M596.199 223.954l2.438 38.853 29.88 6.688s.893-12.457-5.379-18.448a69.9 69.9 0 0 1-15.448-21.1c-2.917-6.009-11.491-5.993-11.491-5.993z" class="AI"/><path d="M588.808 230.05v-2.963l7.387-3.134 29.732 9.418-.636 35.359-7.3 3.416-16.072-4.425z" class="AP"/><path d="M619.008 236.981a.37.37 0 0 1-.15-.707l6.279-2.784a.37.37 0 0 1 .517.376.37.37 0 0 1-.217.299l-6.279 2.784c-.047.021-.098.032-.15.032z" fill="#38540f"/><path d="M620.808 241.122l-.248 13.759 3.31-1.523.268-13.659z" class="Ab"/><ellipse cx="622.053" cy="264.392" rx=".923" ry="2.632" class="AI"/><path d="M581.518 233.189v-2.963l7.387-3.134 29.733 9.418-.641 35.635-7.392 3.477-15.975-4.763z" class="AK"/><path d="M611.708 240.121a.37.37 0 0 1-.15-.707l6.279-2.784a.37.37 0 0 1 .517.376.37.37 0 0 1-.217.299h0l-6.278 2.784c-.048.021-.099.032-.151.032z" class="AQ"/><path d="M613.508 244.261l-.249 13.759 3.31-1.523.268-13.659z" class="Ab"/><path d="M615.683 267.531c0 1.453-.414 2.631-.924 2.631s-.923-1.178-.923-2.631.414-2.632.923-2.632.924 1.178.924 2.632z" class="AI"/><path d="M574.131 236.372v-2.963l7.387-3.134 29.733 9.418-.646 35.928-7.295 3.5-16.067-5.079z" class="AJ"/><g class="AI"><path d="M604.108 243.812l-29.323-9.589a.37.37 0 0 1-.265-.45.37.37 0 0 1 .45-.265.33.33 0 0 1 .044.015l29.034 9.495 6.389-3.2a.37.37 0 0 1 .549.351.37.37 0 0 1-.218.31h0z"/><path d="M603.525 278.504h-.005a.37.37 0 0 1-.364-.374h0l.43-33.857a.37.37 0 0 1 .369-.365h0a.37.37 0 0 1 .365.374l-.431 33.857a.37.37 0 0 1-.364.365z"/></g><path d="M606.126 247.451l-.249 13.759 3.31-1.523.268-13.659z" class="Ab"/><g class="AI"><ellipse cx="607.372" cy="270.716" rx=".923" ry="2.632"/><path d="M573.317 234.723v40.893l29.158 7.323s1.223-13.154-5.048-19.145a67.34 67.34 0 0 1-15.055-21.041c-1.926-3.701-5.151-6.56-9.055-8.03z"/></g><path d="M760.727 295.277c-.957-.52-5.861 2.353-12.312 3.887a235.75 235.75 0 0 0-29.375 9.588c-9.335 3.886-9.578 5.581-11.908 12.051s1.458 31.761 1.757 35.116.88 14.182 2.267 17.672a25.19 25.19 0 0 1 1.646 6.329h18.58s-1.032-17.549 0-21.162.987-16.54 2.17-21.173 17.043-5.673 34.217-6.7c17.291-1.032 22.538-4.7 28.215-6.193s10.623-7.738 11.948-10.519c2.6-5.448.871-12.294.871-12.294z" class="AM"/><path d="M755.528 227.179a2.92 2.92 0 0 0-1.128-1.314c-1.833-1.152-4.413-1.363-6.518-1.455a8.66 8.66 0 0 0-4.869 1.1c-.939.57-1.807 1.624-1.476 2.672.287.912 1.315 1.33 2.224 1.626 2.457.907 5.021 1.495 7.628 1.75 2.314.14 5.294-1.712 4.139-4.379z" class="AI"/><path d="M759.395 228.684l-3.984-3.991c-1.073-.9-2.358-.978-3.674-1.308-1.521-.382-3.028-1.013-4.627-.76-1.225.255-2.357.836-3.279 1.682-1.057.022-1.837.311-1.313 1.279.48.886 1.853.806 2.692.858 1.276.078 2.495.055 3.511.943a15.9 15.9 0 0 1 1.7 1.92 5.54 5.54 0 0 1-2.725.21 20.65 20.65 0 0 0-2.046-.422c-.608-.05-1.377.058-1.265.825s1.638 1.345 2.258 1.574a8.04 8.04 0 0 0 .776.231 24.78 24.78 0 0 0 4.161 1.436l1.807.408c.341.288.748.489 1.184.585.99.1 2.38-.663 3.277-1.055.84-.367 2.87-1.179 3.116-2.252.192-.837-1.106-1.694-1.569-2.163z" class="AN"/><path d="M751.295 226.445a.37.37 0 0 1-.268-.114 4.84 4.84 0 0 0-2.117-1.2c-1.488-.255-2.991-.414-4.5-.476a.37.37 0 0 1-.294-.568.37.37 0 0 1 .328-.17h0a35.28 35.28 0 0 1 4.642.5c.935.244 1.79.73 2.479 1.408a.37.37 0 0 1-.267.623zm2.056-1.307a.38.38 0 0 1-.2-.057l-3.171-1.429a.37.37 0 0 1 .3-.675l3.264 1.479a.37.37 0 0 1-.2.682z" class="AV"/><g class="AI"><path d="M669.308 259.917l26.569 5.939 55.136-25.362-24.935-5.408z"/><path d="M669.308 259.918v-1.571l56.907-24.808 24.8 5.472v1.484z"/></g><path d="M695.662 264.335l-25.48-5.38a.37.37 0 0 1 .153-.723l25.244 5.331 54.369-24.58a.37.37 0 0 1 .541.345.37.37 0 0 1-.203.311l-.038.017zm-.472-14.852a.37.37 0 0 1-.153-.705l16.293-7.358a.37.37 0 0 1 .367.307.37.37 0 0 1-.244.411c-.439.183-10.708 4.854-16.11 7.313a.35.35 0 0 1-.153.032z" class="AJ"/><path d="M770.372 296.603s-23.252-5.451-30.735-1.325-6.193 13.475-6.193 13.475z" class="AM"/><path d="M758.674 296.113s4.646 6.193 7.354 10.839 5.677 10.839 6.71 11.807 6.144-2.129 12.975-2.71 10.271-7.3 10.271-7.3z" class="AK"/><g class="AN"><path d="M762.987 208.672c.429 2.309 1.435 5.274 3.322 6.921 1.522 1.34 4.167 1.2 6.1 1.114 2.209-.085 4.396-.473 6.5-1.151 5.485-1.835 5.645-.444 10.905-10.358s.095-22.9.095-22.9-11.219-6.221-15.545-3.919c-2.536 1.326-8.749 1.581-9.558 3.977-.85 2.506-1.488 5.08-1.908 7.693-.233 1.421-.416 2.856-.531 4.3-.051.517-.088 1.034-.117 1.551a52.52 52.52 0 0 0 .737 12.772z"/><path d="M788.123 204.672l.814 17.106c.146 3.073-1.412 5.976-4.053 7.553a11.12 11.12 0 0 1-5.822 1.682q-.348-.008-.679-.036c-4.12-.445-7.276-3.869-7.384-8.012l-.625-13.906z"/></g><path d="M762.243 195.894c.099.021.199.03.3.029.372.008.933-.1.947-.576.008-.408-.546-.728-.859-.888-.088-.044-.182-.081-.27-.117l-.118 1.552z" class="AL"/><path d="M762.503 197.009c-.901 2.195-1.496 4.503-1.769 6.86-.169 1.431 2.826 1.355 2.826 1.355zm-49.095 55.48l-.093-.111a22.41 22.41 0 0 0-4.069-3.8 10.12 10.12 0 0 0-5.128-2.179 22.53 22.53 0 0 0-6 .817 5.78 5.78 0 0 0-1.6.52c-.481.266-1.085.753-.962 1.36a5.01 5.01 0 0 0-1.256.293c-.726.323-1.306 1.22-.358 1.668a1.35 1.35 0 0 0-.025 1.1 2.3 2.3 0 0 0 1.383 1.1 9.42 9.42 0 0 0 1.819.45c.565.112 1.426.286.47.508s-3.218-.873-3.308.845c-.067 1.285 3.591 1.45 4.472 1.513 3.193.229 4.332.724 7.113 2.4 1.663 1 3.086 3.073 5.193 2.053a9.4 9.4 0 0 0 3.746-4.43c.703-1.624-.417-2.932-1.397-4.107z" class="AN"/><path d="M701.163 254.497h-.043l-2.607-.3a.37.37 0 0 1-.331-.4.37.37 0 0 1 .397-.335h.018l2.607.3a.37.37 0 0 1 .33.388.37.37 0 0 1-.371.348zm3.074-1.746c-.061 0-.121-.015-.174-.044a13.41 13.41 0 0 0-2.821-1.018 44.4 44.4 0 0 0-6.569-.379h0a.37.37 0 0 1 0-.739 43.41 43.41 0 0 1 6.75.4 13.91 13.91 0 0 1 2.993 1.085.37.37 0 0 1-.174.7zm-.143-3.067c-.056 0-.112-.013-.163-.037-.874-.432-1.813-.719-2.78-.848a32.58 32.58 0 0 0-4.673.666.37.37 0 0 1-.434-.29.37.37 0 0 1 .29-.434 36.71 36.71 0 0 1 4.839-.68 9.54 9.54 0 0 1 3.083.923.37.37 0 0 1-.162.7z" class="AV"/><path d="M710.092 261.177l11.613 5.806 3.774-8.24-13.125-4.763z" class="AN"/><path d="M805.351 231.445c1.5-1.551 3.328-3.586 3.187-5.9-.126-2.078-1.754-3.346-3.136-4.488-2.1-1.738-3.627-4.374-6.141-5.442-5.366-2.281-12.049.417-17.174 2.263-3.612 1.3-7.188 2.377-11 1.564a2.6 2.6 0 0 0-2.792 1.283c-.047.018-.094.03-.141.05-2.745 1.1-5.177 4.835-7.887 6.477-2.621 1.589-5.62 2.993-7.573 5.34-.605.718-1.091 1.528-1.439 2.4a15.91 15.91 0 0 0-.772 5.9c.02 6.94.533 13.873 1.056 20.785.648 8.555 1.392 17.11 1.648 25.7.157 5.174 2.822 13.127 7.543 13.448 7.2.49 19.566 10.494 26.655 12.064 9.088 2.014 19.334 1.26 22.755-5.745 1.917-3.928-2-25.782-3.27-36.388a63.17 63.17 0 0 1 .31-16.687 91.83 91.83 0 0 0 1.261-10.894c.204-3.654-.595-7.294-2.311-10.527-.247-.414-.508-.813-.779-1.203z" class="AS"/><g class="AL"><path d="M789.94 208.833a17.55 17.55 0 0 0 1.153-2.871c2.28-6.3 6.9-12.565 4.89-19.592-2.359-8.257-11.025-11.776-19.31-12.361-1.627-.114-3.023-.927-4.766-.614-1.88.387-3.606 1.314-4.967 2.667a16.64 16.64 0 0 0-4.46 7.7c-.473 1.986-.411 4.873 1.843 5.743 1.029.4 2.154.321 3.16.815.324.23.664.436 1.018.617.36.106.739-.02 1.083.052a1.17 1.17 0 0 1 .658.33c-.367 2.927-.906 5.83-1.613 8.694-.3 1.205-.589 2.437-1 3.61-.508 1.453-2.671 3.55-4.446 2.574-.19-.106-.43-.038-.536.152-.014.025-.025.052-.033.079-.434 1.138.321 1.544 1.054 2.227.538.5 1.908.3.5 2-.109.132-.43.109-.528.274-.261.443-.514.373-.585 1-.136 1.218 1.146 2.676 1.865 3.534.756.9 2.126 2.167 3.441 1.86 2.6-.6 1.43-6.419 1.374-8.135-.086-4.493.227-8.985.937-13.422.039.172.19.296.366.3 3.612.052.586 6.156 1.531 8.285.35.785 1.022 1.156 1.622 1.718 1.021.957 1.132 2.351 2 3.391 1.02 1.222 2.66 1.41 4.155 1.419a34.62 34.62 0 0 0 6.46-.172c1.283-.092 2.446-.787 3.134-1.874z"/><path d="M795.956 174.801c-.423-2.573-4.939-3.208-6.964-3.051-2.181.169-5.864.714-6.941 2.954-.111.083-.163.223-.135.358-.015.184.122.346.306.361h.01c2.173 1.916 4.923 5.261 8.068 4.11 1.281-.468 2.965-.244 4.043-1.168a4.53 4.53 0 0 0 1.613-3.564z"/></g><path d="M790.028 179.837c-.026 0-.052-.003-.077-.008-1.233-.262-7.427-1.6-8.277-2.34-1.041-.9-.118-2.535-.079-2.6a.37.37 0 0 1 .642.367c-.008.012-.651 1.186-.079 1.679.546.472 5.165 1.586 7.947 2.176a.37.37 0 0 1-.076.731zm-20.065 8.966a.37.37 0 0 1-.158-.7c2.502-1.304 4.795-2.977 6.8-4.962a32.29 32.29 0 0 0 4.264-4.725.37.37 0 0 1 .508-.123.37.37 0 0 1 .124.507 31.7 31.7 0 0 1-4.377 4.868 28.34 28.34 0 0 1-7.005 5.1.36.36 0 0 1-.155.035zm2.775-5.354a.37.37 0 0 1-.368-.308.37.37 0 0 1 .247-.411c.451-.25 4.509-3.284 6.993-5.161a.37.37 0 0 1 .517.072.37.37 0 0 1-.071.517h0l-7.318 5.291zm15.258 12.58a.37.37 0 0 1-.323-.548c1.246-2.479 1.736-5.27 1.408-8.025a15.81 15.81 0 0 0-2.824-7.109.37.37 0 0 1 .054-.519.37.37 0 0 1 .519.053h0a16.24 16.24 0 0 1 2.982 7.471c.365 2.916-.156 5.875-1.495 8.491a.37.37 0 0 1-.321.186zm1.574 8.043a.37.37 0 0 1-.332-.53h0l3.748-7.776a.37.37 0 0 1 .493-.172.37.37 0 0 1 .172.493l-3.748 7.776a.37.37 0 0 1-.333.209z" class="AT"/><path d="M734.608 303.916a.37.37 0 0 1-.369-.319.37.37 0 0 1 .269-.406l19.355-5.441a.37.37 0 0 1 .2.711l-19.355 5.441c-.033.009-.066.014-.1.014zm-1.218 31.631a11.86 11.86 0 0 1-4.573-.869 16.5 16.5 0 0 1-4.463-2.779.37.37 0 0 1-.016-.522.37.37 0 0 1 .522-.016h0c1.27 1.096 2.703 1.986 4.248 2.639a11.82 11.82 0 0 0 5.452.748.37.37 0 1 1 .1.733c-.422.047-.846.069-1.27.066zm-3.363 1.386c-.3 0-3.747-.522-4.8-.682a.37.37 0 0 1-.31-.42.37.37 0 0 1 .42-.31l4.691.673c.202.006.363.173.361.375s-.163.362-.363.364z" class="AZ"/><path d="M771.261 340.761c-19.49 0-28.341-4.5-28.437-4.547a.37.37 0 0 1 .343-.655c.1.054 10.579 5.357 33.973 4.332 30.628-1.346 37.466-13.245 37.532-13.364a.37.37 0 0 1 .496-.142.37.37 0 0 1 .153.493c-.273.505-7.038 12.385-38.149 13.751q-3.103.135-5.911.132zm8.126 20.195c-30.205 0-44.068-15.079-44.214-15.242a.37.37 0 0 1 .029-.522.37.37 0 0 1 .521.029c.154.172 15.729 17.086 49.967 14.781 25.421-1.707 36.224-23.38 36.33-23.6a.37.37 0 0 1 .665.323c-.109.222-11.087 22.277-36.946 24.014q-3.288.221-6.352.217zm-.235 18.586c-29.3 0-45.873-16.6-46.053-16.784a.37.37 0 0 1 .006-.522.37.37 0 0 1 .522.006h0c.2.2 20.233 20.257 55.274 15.956 33.333-4.1 37.308-25.234 37.344-25.447.039-.198.227-.33.426-.3a.37.37 0 0 1 .3.426c-.037.219-4.073 21.891-37.983 26.057a80.67 80.67 0 0 1-9.836.608z" class="AI"/><path d="M798.195 233.348c-2.662.004-5.295-.543-7.735-1.607-6.982-3.047-22.869-6.576-23.029-6.612a.37.37 0 0 1 .16-.722c.16.036 16.117 3.581 23.165 6.657a18.8 18.8 0 0 0 13.139.64.37.37 0 0 1 .499.401.37.37 0 0 1-.232.288c-1.92.656-3.938.979-5.967.955z" class="Aa"/><path d="M769.125 237.554c-1.935-2.6-8.4-9.875-8.4-9.875s-11.629 3.849-16.035 12.044a55.73 55.73 0 0 1-8.7 12.413c-2 1.971-6.884 2.455-9.547 2.8-.855.111-3.711-.159-4.313.358-1.258 1.149-2.307 2.508-3.1 4.016-1.349 2.354-2.939 3.984-3.642 6.407 4.879 3.17 9.914 6.371 15.2 8.137 5.806 1.94 13.037 4 20.541.516s18.516-23.323 18.838-24.6 1.093-9.613-.842-12.216z" class="AS"/><path d="M754.664 272.207a.37.37 0 0 1-.221-.666c.061-.045 6.1-4.575 8.719-9.6 2.626-5.044 3.971-14.484 3.984-14.578a.37.37 0 0 1 .732.1c-.056.392-1.375 9.66-4.061 14.817-2.7 5.176-8.68 9.662-8.932 9.85a.37.37 0 0 1-.221.077zm-26.515-7.535c-.034 0-.067-.005-.1-.014a.37.37 0 0 1-.257-.455c.043-.156 1.081-3.841 2.518-5.435l5.063-5.4a.37.37 0 0 1 .536.509l-5.051 5.385c-1.32 1.466-2.344 5.1-2.354 5.139a.37.37 0 0 1-.355.271zm0-6.707a.37.37 0 0 1-.188-.687l5.214-3.1a.37.37 0 0 1 .506.129.37.37 0 0 1-.129.506h0l-5.215 3.1c-.057.034-.122.052-.188.052z" class="Aa"/><g class="AK"><path d="M637.485 272.059l9.582-12.934c.356-.178 27.359 5.177 27.359 5.177l-7.373 13.844z"/><path d="M645.413 266.396c-.293-.242-14.5 5.165-14.5 5.165l10.615 15.511 15.685-6z"/></g><path d="M651.923 274.791a.3.3 0 0 1-.232-.114l-6.142-7.95-4.718 1.458c-.1.035-.212.013-.291-.058a.29.29 0 0 1-.09-.282c.024-.103.101-.186.203-.216h.006l4.909-1.519c.116-.036.242.004.317.1l6.267 8.11a.29.29 0 0 1 .059.216c-.01.077-.05.147-.111.194h0c-.051.039-.113.06-.177.061zm-2.538-6.039c-.078 0-.152-.031-.207-.086s-.085-.13-.085-.207c0-.049.012-.097.036-.14l2.534-4.629c.083-.131.253-.175.389-.101s.19.242.124.382l-2.534 4.63a.29.29 0 0 1-.257.151zm.878 2.301c-.047 0-.093-.011-.134-.033a.29.29 0 0 1-.128-.392h0l4.351-8.445c.074-.144.25-.2.394-.127a.29.29 0 0 1 .126.393l-4.35 8.445a.3.3 0 0 1-.259.158zm8.079 3.985a.27.27 0 0 1-.122-.026c-.07-.032-.125-.092-.152-.164a.29.29 0 0 1 .009-.224h0l5.064-10.919c.072-.138.24-.196.382-.13s.206.231.147.376l-5.062 10.921c-.049.102-.153.167-.266.166zm1.572.367c-.161 0-.292-.131-.292-.292h0c0-.086 0-.175 5.148-11.056.069-.146.243-.208.389-.139s.208.243.139.389h0l-5.1 10.885c-.036.127-.152.214-.284.213zm2.268.437a.29.29 0 0 1-.293-.291h0c0-.085 0-.175 5.073-10.955.074-.137.242-.192.383-.125s.205.231.146.375l-5.028 10.783a.29.29 0 0 1-.281.213z" class="AQ"/><path d="M169.32 350.251a1.85 1.85 0 0 1-1.846-1.846h0v-4.841c-.016-.67.333-1.296.911-1.635a1.85 1.85 0 0 1 2.783 1.635v4.841c0 .49-.194.96-.54 1.306a1.85 1.85 0 0 1-1.306.541zm42.078 12.404c-1.019 0-1.845-.826-1.846-1.845v-4.843c-.02-.663.318-1.286.884-1.631a1.85 1.85 0 0 1 1.855-.041c.581.32.945.928.954 1.591v4.922a1.85 1.85 0 0 1-1.847 1.847zm57.74-22.038a1.85 1.85 0 0 1-1.847-1.845v-4.843a1.85 1.85 0 0 1 1.847-1.847 1.85 1.85 0 0 1 1.847 1.847v4.841c0 .49-.194.96-.541 1.306a1.85 1.85 0 0 1-1.306.541z" class="AI"/><path d="M225.238 258.245l-57.777 17.935v68.679l45.776 13.857h0l57.779-22.232v-66.3z" class="AO"/><path d="M214.008 289.772l-44.785-11.946a.37.37 0 0 1-.27-.447.37.37 0 0 1 .447-.27h.013l44.578 11.9 55.033-17.327a.37.37 0 0 1 .428.25.37.37 0 0 1-.206.45zm-.007 66.949a.37.37 0 0 1-.261-.108c-.069-.069-.108-.163-.107-.261V290.9a.37.37 0 1 1 .739-.038v65.493a.37.37 0 0 1-.371.366zm-1.528-44.478a.38.38 0 0 1-.1-.013l-43.952-11.819a.37.37 0 0 1-.26-.452.37.37 0 0 1 .452-.26l43.952 11.817a.37.37 0 0 1 .272.407.37.37 0 0 1-.372.319zm0 23.568a.38.38 0 0 1-.1-.013l-43.948-11.817a.37.37 0 0 1-.26-.453.37.37 0 0 1 .452-.26l43.948 11.819a.37.37 0 0 1 .272.407.37.37 0 0 1-.372.319zm-20.329-1.15a1.52 1.52 0 0 1-.391-.051l-10-2.634c-.595-.158-1.037-.658-1.12-1.268s.209-1.21.741-1.521c.348-.205.765-.262 1.155-.157l10 2.634c.745.191 1.23.907 1.132 1.67s-.748 1.333-1.517 1.33zm-10-4.943c-.394 0-.727.293-.778.684s.197.759.578.86l10 2.634c.419.11.849-.14.959-.559s-.14-.849-.56-.96l-10-2.634a.8.8 0 0 0-.2-.025zm11.481-18.395c-.131 0-.261-.017-.387-.05l-10-2.634c-.814-.214-1.299-1.047-1.085-1.861s1.047-1.299 1.861-1.085l10 2.634c.749.188 1.238.907 1.139 1.672s-.755 1.336-1.527 1.328zm-.2-.764c.418.117.851-.126.968-.544s-.126-.851-.544-.968l-.025-.006-10-2.634c-.416-.103-.838.147-.947.562s.134.84.547.956zm1.436-21.887c-.132 0-.263-.017-.39-.051l-10-2.633c-.536-.13-.959-.54-1.108-1.071s.002-1.101.392-1.49a1.52 1.52 0 0 1 1.491-.386l10 2.634c.745.191 1.23.907 1.132 1.67s-.748 1.333-1.517 1.33zm-10-4.943c-.394 0-.727.293-.778.684s.197.759.578.86l10 2.634c.416.103.838-.147.947-.562s-.134-.84-.547-.956l-10-2.633a.71.71 0 0 0-.2-.026z" class="Ac"/><path d="M646.343 326.486l-.377 20.82-.542 29.934-24.416 11.421-25.089-8.035v-52.382l22.716-7.977z" class="AO"/><path d="M622.738 356.841a.37.37 0 0 1-.37-.368h0v-19.25a.37.37 0 0 1 .56-.336.37.37 0 0 1 .179.336v19.25a.37.37 0 0 1-.369.368z" class="Ac"/><path d="M645.966 347.302l-.542 29.934-24.416 11.421-25.089-8.037v-30.11l26.92 6.517z" fill="#d9c2b8"/><path d="M628.734 332.909a4.7 4.7 0 0 0-1.618-2.046 3.74 3.74 0 0 0-1.544-.569 7.93 7.93 0 0 0-2.478-1.227c-.616-.193-1.268-.243-1.906-.147a2.16 2.16 0 0 0-1.233-2.79 2.12 2.12 0 0 0-.333-.1c-.62-.148-1.181-.1-1.81-.3-.574-.228-1.126-.51-1.647-.842-.563-.365-1.23-.536-1.9-.488-1.248.222-2.12 1.81-2.822 2.962-.166-.239-.397-.426-.665-.539a1.94 1.94 0 0 0-1.323.044c-.696.345-1.44.581-2.208.7-.495.007-.99-.118-1.485-.148-1.486-.192-2.846.856-3.039 2.342a2.75 2.75 0 0 0-.019.48 2.06 2.06 0 0 0 .236.724.36.36 0 0 0-.014.081l12.9 2.925a6.86 6.86 0 0 0 .577-.628l.243-.274.133.362.34.835 5.954 1.352 5.9-2.009a4.22 4.22 0 0 0-.239-.7zm8.274-7.831c-1.063-1.175-3.671-2.032-5.2-2.216-1.315-.155-2.549.2-3.864-.081-.554-.126-.923-.414-1.47-.118-1.713.927-1.213 3.865-.557 5.245 1.034 1.867 2.567 3.409 4.428 4.453l.31.192a3.39 3.39 0 0 0 .6.281l2.955-1.013.577-.34c.552-.279 1.044-.663 1.448-1.13a4.65 4.65 0 0 0 .834-1.573c.389-1.154.862-2.68-.061-3.7z" class="AK"/><path d="M644.908 328.181l-10.7 3.641-2.955 1.013-2.275.775-5.9 2.009-5.954-1.352-1.293-.3-12.9-2.926-5.623-1.269c-.198-.047-.323-.244-.281-.443a.37.37 0 0 1 .443-.281h0l5.238 1.189 13.7 3.1.376.088 6.257 1.419 5.688-1.943 1.611-.547 5.9-2.009 8.436-2.873c.194-.066.404.036.472.229.063.199-.043.411-.24.48z" fill="#d9c2b8"/><path d="M618.817 325.349a.37.37 0 0 1-.368-.369h0v-3.94a.37.37 0 0 1 .739 0v3.94a.37.37 0 0 1-.368.37z" class="Ac"/><path d="M615.837 332.982h-.012a6.85 6.85 0 0 1-2.375-.617 6.51 6.51 0 0 1-1.718-1.095l-.651-.51c-1.048-.738-.223-2.693-.125-2.913a.37.37 0 0 1 .636-.067.37.37 0 0 1 .039.367h0c-.229.523-.563 1.7-.124 2.011l.7.546c.461.409.983.743 1.548.988.662.306 1.373.493 2.1.553a.37.37 0 0 1 .363.375.37.37 0 0 1-.375.363h-.007zm.902-.678c-.12-.001-.232-.061-.3-.161a1.73 1.73 0 0 1-.219-1.31c.104-.449.381-.837.771-1.081l.094-.055c1.182-.837 3.418-1.17 3.768-.822a.37.37 0 0 1-.4.6 5.54 5.54 0 0 0-2.94.821c-.906.64-.542 1.306-.459 1.433a.37.37 0 0 1-.111.513c-.06.038-.129.058-.2.059zm15.575-.923h-.025a.37.37 0 0 1-.344-.393h0a9.2 9.2 0 0 0 0-.969 4.67 4.67 0 0 0-1.017-.88c-.72-.516-1.396-1.09-2.022-1.717-.933-1.055-1.277-2.506-.918-3.867a.37.37 0 0 1 .449-.234.37.37 0 0 1 .26.434c-.278 1.109-.001 2.284.743 3.152a15.38 15.38 0 0 0 1.93 1.638c.8.6 1.285.964 1.311 1.429a9.39 9.39 0 0 1 0 1.06c-.011.195-.172.347-.367.347zm2.679-1.538c-.071 0-.14-.02-.2-.058l-3.355-2.139a.37.37 0 0 1 .4-.622l3.355 2.139a.37.37 0 0 1-.2.68zm-12.256 3.361a.37.37 0 0 1-.362-.3 2.28 2.28 0 0 1 3.065-2.517.37.37 0 0 1-.267.689c-.514-.195-1.093-.102-1.521.244a1.54 1.54 0 0 0-.553 1.437.37.37 0 0 1-.289.435.44.44 0 0 1-.073.012z" class="AQ"/><path d="M188.546 237.809c-.682-8.9 30.931-8.052 33.117-2.451 4.137 10.601-30.263 11.649-33.117 2.451z" class="Ad"/><path d="M188.535 237.383s8.49.8 11.383 3.754c-.04.275.028 2.041.028 2.041s-7.291-.56-10.387-3.556a3.16 3.16 0 0 1-1.024-2.239z" class="Ae"/><path d="M221.525 235.072s3.675 4.121-13.379 6.147c-5.546.907-15.1-.8-19.28-3.359-.325.106 4.545 4.791 20.245 3.8 15.309-.962 12.897-5.522 12.414-6.588z" opacity=".6" class="AK"/><path d="M192.908 235.528l9.579 3.445a11.42 11.42 0 0 0 7.2.177l7.933-2.42c.162-.05.272-.199.272-.368s-.11-.318-.272-.368l-11.132-3.354c-1.794-.54-3.704-.562-5.51-.063l-8.035 2.219c-.162.042-.278.186-.286.353s.094.321.251.379z" fill="#444"/><path d="M422.664 203.132c-.579-7.558 26.271-6.84 28.128-2.082 3.516 9.004-25.703 9.894-28.128 2.082z" class="Ad"/><path d="M422.655 202.772s7.211.681 9.668 3.189c-.034.233.024 1.733.024 1.733s-6.193-.475-8.822-3.019a2.68 2.68 0 0 1-.87-1.903z" class="Ae"/><path d="M450.675 200.81s3.121 3.5-11.364 5.221c-4.71.77-12.821-.68-16.375-2.854-.276.091 3.86 4.07 17.195 3.228 13.003-.82 10.954-4.693 10.544-5.595z" opacity=".6" class="AK"/><path d="M426.37 201.194l8.135 2.926a9.7 9.7 0 0 0 6.112.15l6.737-2.055c.138-.041.233-.168.233-.312s-.095-.271-.233-.312l-9.455-2.849a8.45 8.45 0 0 0-4.68-.054l-6.824 1.885c-.138.037-.236.159-.241.302s.082.272.216.32z" fill="#444"/><path d="M653.753 289.389c.607-7.913-27.5-7.16-29.446-2.18-3.679 9.427 26.908 10.363 29.446 2.18z" class="Ad"/><path d="M653.763 289.009s-7.549.713-10.121 3.338c.035.245-.025 1.815-.025 1.815s6.483-.5 9.235-3.161c.56-.514.889-1.232.911-1.992z" class="Ae"/><path d="M624.43 286.958s-3.268 3.664 11.9 5.466c4.931.806 13.422-.712 17.143-2.988.288.1-4.042 4.261-18 3.38-13.618-.859-11.473-4.913-11.043-5.858z" opacity=".6" class="AK"/><path d="M649.873 287.361l-8.516 3.062c-2.061.741-4.305.797-6.4.158l-7.053-2.152c-.145-.043-.243-.177-.243-.327s.099-.284.243-.327l9.9-2.981a8.83 8.83 0 0 1 4.9-.057l7.145 1.973c.144.04.246.168.251.317s-.086.285-.227.335z" fill="#444"/><defs ><path id="B" d="M223.163 144.64c-.027 0-.054-.003-.08-.008l-13.392-2.976a.37.37 0 0 1-.28-.44.37.37 0 0 1 .44-.28l13.392 2.975a.37.37 0 0 1 .29.401.37.37 0 0 1-.37.329z"/><path id="C" d="M166.832 92.531c-.025 0-.05-.003-.074-.008l-3.324-.677a.37.37 0 0 1-.288-.436.37.37 0 0 1 .435-.288l3.324.677a.37.37 0 0 1 .296.399.37.37 0 0 1-.369.332z"/><path id="D" d="M160.275 115.011c-.029 0-.058-.004-.086-.01l-16.067-3.878a.37.37 0 0 1-.272-.445.37.37 0 0 1 .445-.272l16.066 3.878a.37.37 0 0 1 .281.402.37.37 0 0 1-.367.326z"/></defs></svg>